<svg width="24" height="25" viewBox="0 0 24 25" fill="none" xmlns="http://www.w3.org/2000/svg">
<path d="M16.4862 24.6045C16.4317 22.6096 16.4862 18.6506 16.4726 18.5278H15.9825C15.9757 17.8833 15.9689 16.4286 15.9689 16.4286C15.9689 16.4286 16.003 14.5013 15.2339 12.9483C14.4648 11.3954 13.0559 11.1008 13.0559 11.1008C13.0763 11.1008 12.9538 10.8491 13.1648 10.8491C13.1035 10.8368 12.8177 10.8553 12.8177 10.843C12.8177 10.4624 12.8108 9.54785 12.8108 9.54785V9.21639C12.8177 9.20412 12.8245 9.19184 12.8313 9.17957H11.1842C11.1978 9.19798 11.2046 9.21639 11.2114 9.23481V9.56626C11.2114 9.56626 11.2046 10.4808 11.2046 10.8614C11.2046 10.8737 10.9187 10.8553 10.8575 10.8675C11.0685 10.8675 10.9528 11.1192 10.9664 11.1192C10.9664 11.1192 9.65277 11.3524 8.75435 12.9483C7.85593 14.5442 7.99886 17.8895 7.99206 18.534L7.54285 18.5401C7.52924 18.6629 7.57688 22.6096 7.51562 24.6045H8.4753V22.8736C8.4753 22.8736 8.57059 22.3641 9.17634 22.3641C9.77528 22.3641 9.92502 22.8736 9.92502 22.8736V24.6045H11.0344V22.3518H13.0627V24.6045H14.07V22.8736C14.07 22.8736 14.1653 22.3641 14.771 22.3641C15.37 22.3641 15.5197 22.8736 15.5197 22.8736V24.6045H16.4862ZM8.67948 17.2266C8.67948 17.2266 8.73393 16.9012 9.08105 16.9012C9.42136 16.9012 9.50984 17.2266 9.50984 17.2266V18.3682H8.67948V17.2266ZM9.65958 21.3145H8.46849V19.8721C8.46849 19.8721 8.55017 19.4669 9.04702 19.4669C9.54387 19.4669 9.65958 19.8721 9.65958 19.8721V21.3145ZM9.52345 14.5688C9.50984 14.6363 9.49623 14.7222 9.48262 14.802H9.03341C9.05382 14.7222 9.06744 14.6302 9.08786 14.5381C9.14231 14.2619 9.21037 14.0839 9.21037 14.0839H9.67319C9.66638 14.0839 9.55748 14.3908 9.52345 14.5688ZM13.5187 14.1023C13.5187 14.1023 13.5663 14.2557 13.6072 14.5319C13.6208 14.6302 13.6344 14.7222 13.6412 14.802H13.1375C13.1171 14.6731 13.0831 14.5319 13.0627 14.446C13.015 14.268 12.9946 14.1023 12.9946 14.1023H13.5187ZM11.7559 14.1023H12.2732L12.2595 14.802H11.7491L11.7559 14.1023ZM11.5449 17.2204C11.5449 17.2204 11.6538 16.889 12.0009 16.889C12.348 16.889 12.4773 17.2204 12.4773 17.2204V18.3682H11.5449V17.2204ZM10.4151 14.5442C10.4559 14.268 10.5035 14.1146 10.5035 14.1146H11.0344C11.0344 14.1146 11.014 14.2864 10.9664 14.4644C10.9459 14.5442 10.9187 14.6793 10.8983 14.802H10.3878C10.3946 14.7284 10.4015 14.6363 10.4151 14.5442ZM10.1088 17.2204C10.1088 17.2204 10.1632 16.8951 10.5104 16.8951C10.8575 16.8951 10.9391 17.2204 10.9391 17.2204V18.3682H10.1088V17.2204ZM11.6266 21.3145H10.4355V19.8598C10.4355 19.8598 10.5172 19.4547 11.014 19.4547C11.5109 19.4547 11.6334 19.8598 11.6334 19.8598V21.3145H11.6266ZM13.5868 21.3145H12.3957V19.8598C12.3957 19.8598 12.4773 19.4547 12.9742 19.4547C13.471 19.4547 13.5936 19.8598 13.5936 19.8598V21.3145H13.5868ZM13.9066 18.3621H13.0763V17.2143C13.0763 17.2143 13.1307 16.889 13.4779 16.889C13.8182 16.889 13.9066 17.2143 13.9066 17.2143V18.3621ZM15.3428 17.2204V18.3682H14.5124V17.2204C14.5124 17.2204 14.5668 16.8951 14.914 16.8951C15.2543 16.8951 15.3428 17.2204 15.3428 17.2204ZM14.8187 14.1023C14.8187 14.1023 14.8799 14.2742 14.9344 14.5565C14.9548 14.6424 14.9684 14.7284 14.982 14.802H14.5328C14.526 14.7284 14.5124 14.6486 14.4988 14.5872C14.4648 14.4092 14.3559 14.1084 14.3559 14.1084H14.8187V14.1023ZM14.3627 21.3145V19.8598C14.3627 19.8598 14.4443 19.4547 14.9412 19.4547C15.438 19.4547 15.5605 19.8598 15.5605 19.8598V21.3145H14.3627Z" fill="white"/>
<path d="M17.0645 2.9372C17.0645 2.8574 17.0713 2.77147 17.0645 2.69168C17.0577 2.36022 17.0168 2.02877 16.9692 1.70345C16.9283 1.42724 16.9011 1.13875 16.8126 0.874811C16.8058 0.856397 16.765 0.72136 16.731 0.727498C15.9619 0.795016 15.009 1.15102 14.342 1.4702C12.7085 2.24974 11.8713 3.8886 12.0279 5.50291C12.0687 5.93257 12.1436 6.36223 12.2661 6.77962C12.3273 6.98218 12.5043 7.87219 12.5111 7.87219C13.9064 7.56529 15.5671 6.43589 16.343 5.28194C16.7378 4.69268 16.9692 3.99294 17.044 3.29321C17.0508 3.17658 17.0577 3.05996 17.0645 2.9372Z" fill="#009D4F"/>
<path d="M10.9251 18.362V17.2142C10.9251 17.2142 10.8434 16.8889 10.4963 16.8889C10.1492 16.8889 10.0947 17.2142 10.0947 17.2142V18.362H10.9251Z" fill="#A73439"/>
<path d="M13.8929 18.362V17.2142C13.8929 17.2142 13.8112 16.8889 13.4641 16.8889C13.1238 16.8889 13.0625 17.2142 13.0625 17.2142V18.362H13.8929Z" fill="#A73439"/>
<path d="M15.3289 18.362V17.2142C15.3289 17.2142 15.2472 16.8889 14.9001 16.8889C14.553 16.8889 14.4985 17.2142 14.4985 17.2142V18.362H15.3289Z" fill="#A73439"/>
<path d="M12.4632 18.3621V17.2143C12.4632 17.2143 12.3271 16.8828 11.9868 16.8828C11.6397 16.8828 11.5308 17.2143 11.5308 17.2143V18.3621H12.4632Z" fill="#A73439"/>
<path d="M9.49588 18.362V17.2203C9.49588 17.2203 9.41421 16.895 9.06709 16.895C8.71998 16.895 8.66553 17.2203 8.66553 17.2203V18.362H9.49588Z" fill="#A73439"/>
<path d="M9.64564 21.3146V19.8722C9.64564 19.8722 9.52313 19.467 9.02628 19.467C8.52943 19.467 8.44775 19.8722 8.44775 19.8722V21.3146H9.64564Z" fill="#A73439"/>
<path d="M11.6124 21.3145V19.8598C11.6124 19.8598 11.4899 19.4547 10.9931 19.4547C10.4962 19.4547 10.4146 19.8598 10.4146 19.8598V21.3145H11.6124Z" fill="#A73439"/>
<path d="M13.5797 21.3145V19.8598C13.5797 19.8598 13.4572 19.4547 12.9604 19.4547C12.4635 19.4547 12.3818 19.8598 12.3818 19.8598V21.3145H13.5797Z" fill="#A73439"/>
<path d="M15.5397 21.3145V19.8598C15.5397 19.8598 15.4172 19.4547 14.9203 19.4547C14.4235 19.4547 14.3418 19.8598 14.3418 19.8598V21.3145H15.5397Z" fill="#A73439"/>
<path d="M9.90431 24.7273V22.8736C9.90431 22.8736 9.75457 22.3641 9.15563 22.3641C8.55668 22.3641 8.45459 22.8736 8.45459 22.8736V24.7273H9.90431Z" fill="#A73439"/>
<path d="M15.4922 24.7273V22.8736C15.4922 22.8736 15.3425 22.3641 14.7435 22.3641C14.1446 22.3641 14.0425 22.8736 14.0425 22.8736V24.7273H15.4922Z" fill="#A73439"/>
<path d="M12.2458 14.7469L12.2594 14.0471H11.7422L11.7354 14.7469H12.2458Z" fill="#A73439"/>
<path d="M13.1239 14.7469H13.6275C13.6207 14.6671 13.6071 14.575 13.5935 14.4768C13.5526 14.2006 13.505 14.0471 13.505 14.0471H12.9741C12.9741 14.0471 12.9945 14.219 13.0422 14.3909C13.0694 14.4768 13.0966 14.6241 13.1239 14.7469Z" fill="#A73439"/>
<path d="M10.8845 14.7468C10.9049 14.624 10.9321 14.489 10.9526 14.4092C11.0002 14.2312 11.0206 14.0593 11.0206 14.0593H10.4897C10.4897 14.0593 10.4421 14.2128 10.4012 14.489C10.3876 14.5811 10.3808 14.667 10.374 14.7468H10.8845Z" fill="#A73439"/>
<path d="M9.47558 14.7468C9.48919 14.667 9.5028 14.575 9.51641 14.5075C9.55044 14.3295 9.65934 14.0287 9.65934 14.0287H9.19652C9.19652 14.0287 9.13527 14.2006 9.08082 14.4829C9.0604 14.5811 9.03998 14.667 9.02637 14.7468H9.47558Z" fill="#A73439"/>
<path d="M14.5188 14.7469H14.968C14.9544 14.6732 14.9339 14.5934 14.9203 14.5013C14.8659 14.219 14.8046 14.0471 14.8046 14.0471H14.3418C14.3418 14.0471 14.4507 14.354 14.4847 14.5259C14.4983 14.5995 14.512 14.6732 14.5188 14.7469Z" fill="#A73439"/>
<path d="M12.8037 9.54793C12.8037 9.54793 12.8105 10.4625 12.8105 10.8431C12.8105 10.8553 13.0964 10.8369 13.1576 10.8492C12.9466 10.8492 13.0623 11.1009 13.0487 11.1009C13.0487 11.1009 14.4576 11.3955 15.2267 12.9484C15.9958 14.5013 15.9618 16.4287 15.9618 16.4287C15.9618 16.4287 15.9686 17.8834 15.9754 18.5279H16.4654C16.4791 18.6507 16.4246 22.6097 16.4791 24.6046C18.8612 23.0762 21.0664 21.3575 22.4889 18.933C23.7549 16.7786 24.4559 13.6727 23.6664 11.2543C22.3936 7.34437 15.0498 4.56996 12.8037 9.21647V9.54793Z" fill="#A73439"/>
<path d="M11.1977 9.56625C11.1977 9.56625 11.1908 10.4808 11.1908 10.8614C11.1908 10.8737 10.905 10.8552 10.8437 10.8675C11.0547 10.8675 10.939 11.1192 10.9526 11.1192C10.9526 11.1192 9.63904 11.3524 8.74062 12.9483C7.8422 14.5442 7.98513 17.8895 7.97832 18.5339L7.52231 18.5401C7.5087 18.6628 7.55634 22.6219 7.49508 24.6168C5.11972 23.0884 2.92132 21.3575 1.49882 18.9329C0.239678 16.7785 -0.454554 13.6726 0.334964 11.2542C1.61453 7.35041 8.95842 4.58215 11.1908 9.23479L11.1977 9.56625Z" fill="#A73439"/>
<path d="M16.9422 15.3054H7.05957V15.6676H16.9422V15.3054Z" fill="#A73439"/>
<path d="M16.9422 15.8639H7.05957V16.226H16.9422V15.8639Z" fill="#A73439"/>
<path d="M11.8308 9.17957H11.5449V10.8675H11.8308V9.17957Z" fill="#A73439"/>
<path d="M12.4499 9.17957H12.1641V10.8675H12.4499V9.17957Z" fill="#A73439"/>
<path d="M12.9194 22.3518H11.1294V24.7088H12.9194V22.3518Z" fill="#A73439"/>
<path d="M12.1302 8.40626C12.1302 8.40626 11.9601 2.90656 6.36536 0.899413C6.05227 0.78279 4.13293 1.2677 4.44601 1.40273C10.6328 2.98021 11.5653 7.38734 11.8716 8.41239H12.1302V8.40626Z" fill="#673918"/>
</svg>
