<svg width="70" height="70" viewBox="0 0 70 70" fill="none" xmlns="http://www.w3.org/2000/svg">
<rect y="0.5" width="70" height="69" rx="10" fill="#1570EF"/>
<path d="M35 32.5C40.5 32.5 45 28 45 22.5C45 17 40.5 12.5 35 12.5C29.5 12.5 25 17 25 22.5C25 28 29.5 32.5 35 32.5Z" stroke="white" stroke-width="1.5" stroke-linecap="round" stroke-linejoin="round"/>
<path d="M32.17 25.33L37.83 19.67M37.83 25.33L32.17 19.67" stroke="white" stroke-width="1.5" stroke-linecap="round" stroke-linejoin="round"/>
<path d="M25.6056 49.6293H24.0544C23.9948 49.2978 23.8837 49.0062 23.7213 48.7543C23.5589 48.5024 23.3601 48.2886 23.1247 48.1129C22.8894 47.9373 22.6259 47.8047 22.3343 47.7152C22.0459 47.6257 21.7393 47.581 21.4145 47.581C20.8279 47.581 20.3025 47.7285 19.8385 48.0234C19.3778 48.3184 19.0132 48.7509 18.7448 49.321C18.4796 49.8911 18.347 50.5871 18.347 51.4091C18.347 52.2377 18.4796 52.937 18.7448 53.5071C19.0132 54.0772 19.3795 54.508 19.8435 54.7997C20.3075 55.0914 20.8295 55.2372 21.4095 55.2372C21.731 55.2372 22.036 55.1941 22.3243 55.108C22.616 55.0185 22.8795 54.8875 23.1148 54.7152C23.3501 54.5429 23.549 54.3324 23.7114 54.0838C23.8771 53.8319 23.9914 53.5436 24.0544 53.2188L25.6056 53.2237C25.5227 53.7242 25.362 54.1849 25.1233 54.6058C24.888 55.0234 24.5847 55.3847 24.2135 55.6896C23.8456 55.9912 23.4247 56.2249 22.9507 56.3906C22.4768 56.5563 21.9597 56.6392 21.3996 56.6392C20.518 56.6392 19.7325 56.4304 19.0431 56.0128C18.3537 55.5919 17.8101 54.9903 17.4124 54.2081C17.018 53.4259 16.8208 52.4929 16.8208 51.4091C16.8208 50.322 17.0196 49.389 17.4173 48.6101C17.8151 47.8279 18.3586 47.228 19.048 46.8104C19.7374 46.3894 20.5213 46.179 21.3996 46.179C21.9398 46.179 22.4436 46.2569 22.911 46.4126C23.3816 46.5651 23.8042 46.7905 24.1787 47.0888C24.5532 47.3838 24.8631 47.745 25.1084 48.1726C25.3537 48.5968 25.5194 49.0824 25.6056 49.6293ZM28.811 46.3182V56.5H27.3245V46.3182H28.811ZM34.0274 56.6541C33.3115 56.6541 32.6868 56.4901 32.1531 56.1619C31.6195 55.8338 31.2052 55.3748 30.9102 54.7848C30.6153 54.1948 30.4678 53.5054 30.4678 52.7166C30.4678 51.9245 30.6153 51.2318 30.9102 50.6385C31.2052 50.0452 31.6195 49.5845 32.1531 49.2564C32.6868 48.9283 33.3115 48.7642 34.0274 48.7642C34.7433 48.7642 35.3681 48.9283 35.9017 49.2564C36.4353 49.5845 36.8496 50.0452 37.1446 50.6385C37.4396 51.2318 37.5871 51.9245 37.5871 52.7166C37.5871 53.5054 37.4396 54.1948 37.1446 54.7848C36.8496 55.3748 36.4353 55.8338 35.9017 56.1619C35.3681 56.4901 34.7433 56.6541 34.0274 56.6541ZM34.0324 55.4062C34.4964 55.4062 34.8809 55.2836 35.1858 55.0384C35.4907 54.7931 35.7161 54.4666 35.8619 54.0589C36.0111 53.6513 36.0857 53.2022 36.0857 52.7116C36.0857 52.2244 36.0111 51.777 35.8619 51.3693C35.7161 50.9583 35.4907 50.6286 35.1858 50.38C34.8809 50.1314 34.4964 50.0071 34.0324 50.0071C33.5651 50.0071 33.1773 50.1314 32.8691 50.38C32.5641 50.6286 32.3371 50.9583 32.1879 51.3693C32.0421 51.777 31.9692 52.2244 31.9692 52.7116C31.9692 53.2022 32.0421 53.6513 32.1879 54.0589C32.3371 54.4666 32.5641 54.7931 32.8691 55.0384C33.1773 55.2836 33.5651 55.4062 34.0324 55.4062ZM44.9687 50.728L43.6214 50.9666C43.565 50.7943 43.4755 50.6302 43.3529 50.4744C43.2336 50.3187 43.0712 50.1911 42.8657 50.0916C42.6602 49.9922 42.4033 49.9425 42.0951 49.9425C41.6742 49.9425 41.3228 50.0369 41.0411 50.2259C40.7594 50.4115 40.6185 50.6518 40.6185 50.9467C40.6185 51.2019 40.713 51.4074 40.9019 51.5632C41.0908 51.719 41.3957 51.8466 41.8167 51.946L43.0297 52.2244C43.7324 52.3868 44.2561 52.6371 44.6008 52.9751C44.9455 53.3132 45.1178 53.7524 45.1178 54.2926C45.1178 54.75 44.9852 55.1577 44.7201 55.5156C44.4582 55.8703 44.092 56.1487 43.6214 56.3509C43.154 56.553 42.6121 56.6541 41.9956 56.6541C41.1405 56.6541 40.4429 56.4718 39.9026 56.1072C39.3624 55.7393 39.0309 55.2173 38.9083 54.5412L40.3451 54.3224C40.4346 54.697 40.6185 54.9804 40.8969 55.1726C41.1753 55.3615 41.5383 55.456 41.9857 55.456C42.4729 55.456 42.8624 55.3549 43.154 55.1527C43.4457 54.9472 43.5915 54.697 43.5915 54.402C43.5915 54.1634 43.502 53.9628 43.3231 53.8004C43.1474 53.638 42.8773 53.5154 42.5127 53.4325L41.2201 53.1491C40.5075 52.9867 39.9805 52.7282 39.6391 52.3736C39.301 52.0189 39.132 51.5698 39.132 51.0263C39.132 50.5755 39.258 50.1811 39.5099 49.843C39.7617 49.505 40.1098 49.2415 40.5539 49.0526C40.998 48.8603 41.5068 48.7642 42.0802 48.7642C42.9055 48.7642 43.5551 48.9432 44.029 49.3011C44.503 49.6558 44.8162 50.1314 44.9687 50.728ZM50.0434 56.6541C49.291 56.6541 48.6431 56.4934 48.0995 56.1719C47.5593 55.8471 47.1417 55.3913 46.8467 54.8047C46.555 54.2147 46.4092 53.5237 46.4092 52.7315C46.4092 51.9493 46.555 51.2599 46.8467 50.6634C47.1417 50.0668 47.5526 49.6011 48.0796 49.2663C48.6099 48.9316 49.2297 48.7642 49.939 48.7642C50.3699 48.7642 50.7875 48.8355 51.1919 48.978C51.5962 49.1205 51.9591 49.3442 52.2806 49.6491C52.6021 49.9541 52.8557 50.3501 53.0413 50.8374C53.2269 51.3213 53.3197 51.9096 53.3197 52.6023V53.1293H47.2494V52.0156H51.863C51.863 51.6245 51.7835 51.2782 51.6244 50.9766C51.4653 50.6716 51.2416 50.4313 50.9532 50.2557C50.6682 50.08 50.3334 49.9922 49.949 49.9922C49.5313 49.9922 49.1668 50.0949 48.8552 50.3004C48.547 50.5026 48.3083 50.7678 48.1393 51.0959C47.9736 51.4207 47.8907 51.7737 47.8907 52.1548V53.0249C47.8907 53.5353 47.9802 53.9695 48.1592 54.3274C48.3415 54.6854 48.595 54.9588 48.9198 55.1477C49.2446 55.3333 49.6241 55.4261 50.0583 55.4261C50.3401 55.4261 50.5969 55.3864 50.8289 55.3068C51.0609 55.224 51.2615 55.1013 51.4305 54.9389C51.5995 54.7765 51.7288 54.576 51.8183 54.3374L53.2252 54.5909C53.1125 55.0052 52.9104 55.3681 52.6187 55.6797C52.3303 55.9879 51.9674 56.2282 51.5299 56.4006C51.0957 56.5696 50.6002 56.6541 50.0434 56.6541Z" fill="white"/>
</svg>
