<svg width="24" height="25" viewBox="0 0 24 25" fill="none" xmlns="http://www.w3.org/2000/svg">
<path d="M23.8195 9.08439C23.6232 8.62368 22.9896 7.90072 22.4569 7.36913C22.0756 6.99347 21.4084 6.36265 20.7467 5.98699C20.9654 3.39284 19.4066 2.28004 18.1898 1.65631C16.7768 0.947526 15.4928 0.827033 14.0853 0.749066C9.5491 0.508079 3.43162 2.26587 0.487828 6.11458L0 6.7454L1.38498 7.24155C0.50465 9.10565 0.218682 11.1753 0.134573 12.6567C0.022429 14.6554 0.241111 16.3424 0.510257 17.1362L0.824262 18.0718L1.25041 17.2071C1.34573 17.0086 1.52516 16.7251 1.7046 16.4203C1.95692 17.0299 4.90071 21.8922 7.83329 23.4302L8.50055 23.7775L8.41644 22.8774C8.34915 22.1757 8.3043 21.6795 8.26505 21.2472C8.86502 21.6937 9.66124 22.2182 10.3565 22.6222C11.7976 23.4657 13.9339 24.5005 15.9582 24.6564L16.8329 24.7273L16.1881 23.5791C16.8609 23.7563 17.6011 23.898 18.3132 23.976L19.3393 24.0965L18.6721 23.1042C18.3917 22.686 18.1954 22.3387 18.0104 21.9772C18.5431 22.1828 19.0253 22.3458 19.059 22.36L20.0178 22.686L19.53 21.5945C18.3917 19.0287 18.1057 18.1356 17.8366 16.9023C18.4702 16.4061 19.6309 16.1014 20.472 16.229C20.6907 16.5196 21.0383 17.0582 21.1168 17.2567L21.3747 17.8804L21.7785 17.3984C24.0326 14.6838 24.2512 10.0696 23.8195 9.08439Z" fill="#C6B784"/>
<path d="M23.455 9.3395C23.1858 8.72286 21.4308 6.82331 20.2869 6.32716C20.6514 3.90311 19.3897 2.83993 18.044 2.1595C16.7207 1.49324 15.4983 1.35857 14.0741 1.2806C9.82942 1.06088 3.72877 2.65565 0.796191 6.49018L2.05221 6.95089C0.100896 10.4381 0.4149 15.5059 0.908335 16.9377C1.14384 16.4557 1.77745 15.4847 2.03539 15.0807C2.00735 15.2862 2.09707 16.2147 2.09707 16.2147C2.16435 16.4486 5.0745 21.4172 8.00708 22.9553C7.88372 21.6511 7.82765 21.0274 7.79961 20.2194C7.91736 20.4391 12.263 23.8554 15.9862 24.146L15.1955 22.7285C15.9749 23.0262 17.1637 23.3239 18.3524 23.4585C17.7412 22.5442 17.5337 21.963 16.9562 20.9282C17.5786 21.3251 19.1711 21.8567 19.1711 21.8567C17.9263 19.0428 17.6739 18.1922 17.3655 16.6896C18.0664 15.9312 19.6308 15.513 20.6794 15.7328C20.8757 15.9596 21.3747 16.7038 21.4981 17.0157C23.6793 14.3648 23.7409 10.0058 23.455 9.3395Z" fill="#12284C"/>
<path d="M15.0104 7.43291C14.5899 7.00055 13.6815 6.61072 13.2217 6.61072C13.0535 7.15648 13.1152 7.70934 13.3507 8.13461C13.5862 8.55988 14.2254 8.75125 14.6123 8.60241C14.203 8.41103 13.8385 7.71642 13.9563 7.21319C14.4553 7.29824 14.674 7.37621 15.0104 7.43291Z" fill="white"/>
<path d="M22.4456 10.1476C22.3335 9.91367 22.2045 9.70103 22.0643 9.50966C21.4812 8.70164 20.7186 8.25511 19.9392 7.82984C19.8439 8.17714 19.6925 8.68038 19.4289 9.16235C19.4233 9.16944 19.3728 9.19071 19.2831 9.22615C18.9018 9.37499 18.5093 9.47422 18.1336 9.56636H18.128C18.0664 9.58054 17.9935 9.59471 17.9318 9.60889C18.1224 9.35373 18.3019 9.0773 18.4589 8.7867C18.0664 8.8434 17.6795 9.04186 17.315 9.26158C15.7506 10.183 14.1077 11.7565 12.9021 13.3017C13.2442 12.0329 14.046 10.665 14.6684 9.78609C13.1825 9.38208 11.8311 8.17714 11.0685 6.5115C11.5676 6.28468 12.0835 6.11458 12.6105 6.00117C12.2909 5.70348 11.9657 5.41288 11.6461 5.11519C12.6834 5.26403 13.7152 5.46249 14.702 5.87359C15.7842 6.32721 16.7991 7.04308 17.6795 7.95742C17.9374 7.44 18.2963 6.63199 18.1505 5.81688C18.442 6.00117 18.7 6.2776 18.885 6.61073C19.1037 5.07975 18.2907 3.98113 16.9617 3.4708C15.9356 3.08097 9.53778 1.64922 3.39226 6.13584L4.21652 6.38391C3.12872 7.95033 2.14185 9.70103 1.97363 12.2527C2.38296 11.5581 3.02218 10.3602 3.43151 9.6585C3.30254 10.8067 3.22965 14.0246 3.33619 14.457C3.44273 14.8964 5.53983 18.3057 6.5267 19.461C5.9828 16.8598 6.15662 14.3719 6.17905 14.1168C7.4575 17.7387 9.50413 19.5673 12.0722 20.7864C11.2368 19.6595 10.9172 19.0712 10.1602 17.2142C11.2928 18.2277 14.4721 20.4037 15.4814 20.5809C14.7413 19.3689 14.1189 17.9371 13.6815 16.3424C14.6179 17.3772 15.3188 18.0434 15.8179 18.3553C15.2179 17.0795 14.7805 15.669 14.545 14.216C15.2067 14.5633 16.216 14.8893 16.6982 14.9744C17.7692 14.0742 18.9355 14.1026 19.7485 14.1876C19.1598 13.5639 18.543 13.0536 17.786 12.848C16.7879 12.5716 15.7562 12.5929 14.7301 12.6212C16.3898 11.4659 19.3392 11.955 19.4682 12.0046C19.6083 12.0684 20.8924 13.1528 21.5821 14.4712C22.5409 11.955 22.5521 10.3602 22.4456 10.1476Z" fill="white"/>
<path d="M13.7378 8.49605C14.0182 8.65198 14.3658 8.7016 14.6182 8.60237C14.2144 8.41099 13.8444 7.71638 13.9621 7.21314C13.8051 7.15644 13.6313 7.13518 13.4687 7.09265C13.3005 7.60298 13.4463 8.14874 13.7378 8.49605Z" fill="#C6B784"/>
<path d="M21.7786 10.5515C21.1954 9.70805 20.4048 9.24025 19.6647 8.67322C19.5974 8.83624 19.5189 9.00635 19.4292 9.16937C19.4235 9.17646 19.3731 9.19772 19.2834 9.23316C18.9021 9.382 18.5096 9.48123 18.1339 9.57338H18.1283C18.0666 9.58755 17.9937 9.60173 17.932 9.6159C18.1227 9.36074 18.3021 9.08431 18.4591 8.79371C18.0666 8.85041 17.6797 9.04887 17.3152 9.2686C15.7788 10.1758 14.2088 11.5154 12.9023 13.3087C13.4687 13.6914 15.1901 14.8538 16.6984 14.9814C17.7694 14.0813 18.9357 14.1096 19.7488 14.1947C19.16 13.5709 18.5432 13.0606 17.7862 12.8551C16.7881 12.5786 15.7564 12.5999 14.7303 12.6282C16.39 11.4729 19.3394 11.962 19.4684 12.0116C19.6086 12.0683 20.887 13.1953 21.5823 14.4782C21.7057 13.1811 21.8459 11.8273 21.7786 10.5515Z" fill="#C6B784"/>
</svg>
