<svg width="12" height="12" viewBox="0 0 12 12" fill="none" xmlns="http://www.w3.org/2000/svg">
<path d="M7.78996 5.99996C7.78996 6.98996 6.98996 7.78996 5.99996 7.78996C5.00996 7.78996 4.20996 6.98996 4.20996 5.99996C4.20996 5.00996 5.00996 4.20996 5.99996 4.20996C6.98996 4.20996 7.78996 5.00996 7.78996 5.99996Z" stroke="#4B586E" stroke-width="0.75" stroke-linecap="round" stroke-linejoin="round"/>
<path d="M5.99992 10.1354C7.76492 10.1354 9.40992 9.09535 10.5549 7.29535C11.0049 6.59035 11.0049 5.40535 10.5549 4.70035C9.40992 2.90035 7.76492 1.86035 5.99992 1.86035C4.23492 1.86035 2.58992 2.90035 1.44492 4.70035C0.994922 5.40535 0.994922 6.59035 1.44492 7.29535C2.58992 9.09535 4.23492 10.1354 5.99992 10.1354Z" stroke="#4B586E" stroke-width="0.75" stroke-linecap="round" stroke-linejoin="round"/>
</svg>
