<svg width="28" height="30" viewBox="0 0 28 30" fill="none" xmlns="http://www.w3.org/2000/svg">
<path fill-rule="evenodd" clip-rule="evenodd" d="M12 6C5.37187 6 0 11.3719 0 18C0 24.6281 5.37187 30 12 30C18.6281 30 24 24.6281 24 18C24 11.3719 18.6281 6 12 6ZM9.87813 15.8791C10.518 15.2369 11.3781 14.9463 12.2172 15.0072L17.3008 12.6963L14.9898 17.7799C15.0508 18.6189 14.7602 19.4768 14.118 20.1189C13.4781 20.7611 12.618 21.0518 11.7789 20.9908L6.69531 23.3018L9.00625 18.2182C8.94531 17.3791 9.23594 16.5213 9.87813 15.8791ZM11.0725 18.9282C11.5857 19.4415 12.4154 19.4415 12.9287 18.9282C13.442 18.4149 13.442 17.5853 12.9287 17.072C12.4154 16.5587 11.5857 16.5587 11.0725 17.072C10.5592 17.5853 10.5592 18.4149 11.0725 18.9282ZM1.6875 18C1.6875 23.6953 6.30469 28.3125 12 28.3125C17.6953 28.3125 22.3125 23.6953 22.3125 18C22.3125 12.3047 17.6953 7.6875 12 7.6875C6.30469 7.6875 1.6875 12.3047 1.6875 18Z" fill="#1F66FF"/>
<rect x="12" width="16" height="16" rx="8" fill="white"/>
<rect x="13.5" y="1.5" width="13" height="13" rx="6.5" stroke="#1F66FF"/>
<path fill-rule="evenodd" clip-rule="evenodd" d="M22.1582 4.93745C22.4338 5.22734 22.6524 5.56807 22.8067 5.94894C22.9645 6.3414 23.0448 6.75705 23.043 7.18519V7.50719L23.0413 7.67756V11.3792C23.043 11.7217 22.7781 12 22.4517 12H17.5914C17.2649 12 17 11.7217 17 11.3792V7.18519C17 6.75527 17.0803 6.33961 17.2382 5.94894C17.3898 5.57164 17.6083 5.23091 17.8866 4.93745C18.1631 4.64489 18.4851 4.41387 18.8464 4.25243C19.2201 4.08474 19.6161 4 20.0229 4C20.4296 4 20.8247 4.08474 21.1985 4.25153C21.5597 4.41387 21.8826 4.64489 22.1582 4.93745ZM19.0856 4.81363H19.0838C18.8037 4.9394 18.5513 5.12225 18.3292 5.35595C18.1062 5.59053 17.9287 5.86615 17.8038 6.17566C17.6745 6.49766 17.6094 6.8366 17.6094 7.18447V7.44938H22.4349V7.18536C22.4349 6.83393 22.3698 6.49498 22.2404 6.17566C22.1165 5.86882 21.9407 5.59321 21.7151 5.35505C21.4912 5.12047 21.2325 4.93583 20.948 4.80739C20.6545 4.67716 20.3423 4.60938 20.0221 4.60938C19.7001 4.60938 19.3888 4.67627 19.0972 4.80917L19.0856 4.81363ZM22.4376 8.05664V11.3783C22.4376 11.3837 22.4367 11.3881 22.4358 11.3908H17.6112C17.6103 11.3881 17.6094 11.3837 17.6094 11.3783V8.05664H22.4376ZM19.7417 10.2249V9.42661C19.5928 9.33117 19.5009 9.16348 19.5 8.98598C19.5 8.69699 19.7346 8.4624 20.0236 8.4624C20.3126 8.4624 20.5472 8.69699 20.5472 8.98598C20.5472 9.16616 20.4571 9.3285 20.3072 9.42483V10.2249C20.3072 10.381 20.1806 10.5077 20.0245 10.5077C19.8684 10.5077 19.7417 10.381 19.7417 10.2249Z" fill="#1F66FF"/>
</svg>
