<svg width="24" height="25" viewBox="0 0 24 25" fill="none" xmlns="http://www.w3.org/2000/svg">
<path d="M13.2295 20.9793C13.2295 20.9493 13.2211 20.9118 13.2211 20.8743C13.2043 20.582 12.7175 20.4246 12.2643 20.4246C12.0125 20.4246 11.8026 20.477 11.6683 20.567C11.6683 20.567 11.6683 20.567 11.6599 20.5745C11.6515 20.582 11.3829 20.7994 11.2402 21.0617C11.0892 21.3391 10.9884 21.7364 11.2067 21.9238C11.3661 22.0587 11.9201 22.0662 12.0376 22.0662C12.3734 22.0662 12.9525 22.0287 13.0952 21.7589C13.2547 21.4515 13.2463 21.2416 13.2295 20.9793Z" fill="#281B12"/>
<path opacity="0.54" d="M12.9859 21.7214C13.1538 21.3991 13.1202 21.2042 13.0951 20.8819C13.0783 20.5595 12.0878 20.4096 11.7521 20.657C11.7521 20.657 11.5506 20.8144 11.4163 21.0243C11.5003 21.0318 11.8864 21.2267 12.1969 21.3541C12.5411 21.4965 12.4907 21.609 12.2893 21.7739C12.0962 21.9313 11.8444 21.9613 11.2988 21.8489C11.4667 21.9913 12.8181 22.0438 12.9859 21.7214Z" fill="#281B12"/>
<path d="M14.5725 16.6839C14.5137 16.534 14.3962 16.4291 14.2283 16.3616C14.0604 16.3016 13.8422 16.2642 13.6156 16.2642C13.1539 16.2642 12.7426 16.3991 12.516 16.6165C12.3649 16.7664 12.2978 16.9463 12.323 17.1562V17.1637C12.323 17.1712 12.4237 17.8084 12.1215 18.4455C12.0712 18.558 11.9956 18.7004 11.9201 18.8428C11.5088 19.6374 11.2066 20.2746 11.3661 20.6419C11.4165 20.7468 11.5004 20.8293 11.6179 20.8743C11.8026 20.9417 12.0208 20.9717 12.2558 20.9717C12.5496 20.9717 12.8769 20.9193 13.2127 20.8218H13.2211C13.4057 20.7693 13.901 20.6194 13.7247 19.8323C13.5736 19.1202 13.9429 18.3781 14.178 17.9958C14.4382 17.576 14.7151 17.0513 14.5725 16.6839Z" fill="#4E2913"/>
<path d="M12.4742 17.1412C12.4742 17.1412 12.5833 17.8233 12.2643 18.498C11.9454 19.1726 11.0976 20.5294 11.6852 20.7393C12.2643 20.9492 12.9946 20.7393 13.1709 20.6868C13.3471 20.6344 13.7248 20.5294 13.5821 19.8548C13.4394 19.1801 13.7248 18.4455 14.0522 17.9283C14.3711 17.411 14.7237 16.7064 14.1697 16.4965C13.6073 16.2791 12.3986 16.4365 12.4742 17.1412Z" fill="url(#paint0_linear_2610_12240)"/>
<path d="M4.64273 19.7124C4.64273 19.7499 4.63433 19.7948 4.63433 19.8398C4.60076 20.1921 5.12955 20.447 5.64996 20.5145C5.94373 20.5519 6.19554 20.522 6.36341 20.4245C6.36341 20.4245 6.3718 20.4245 6.3718 20.417C6.38859 20.4095 6.74112 20.1846 6.95096 19.8998C7.17759 19.5849 7.36225 19.1277 7.15241 18.8728C6.99293 18.6854 6.34663 18.5954 6.22072 18.5805C5.83462 18.5355 5.15473 18.498 4.94489 18.7903C4.69309 19.1427 4.66791 19.3975 4.64273 19.7124Z" fill="#281B12"/>
<path opacity="0.54" d="M5.06241 18.8653C4.81061 19.2251 4.819 19.465 4.77703 19.8548C4.73506 20.2446 5.85141 20.5594 6.28788 20.3196C6.28788 20.3196 6.54808 20.1546 6.74953 19.9373C6.6572 19.9148 6.59005 19.54 6.2627 19.3376C5.89338 19.1127 5.61639 19.0827 5.88499 18.9103C6.13679 18.7529 6.43057 18.7529 7.03491 18.9628C7.03491 18.9628 7.03491 18.9628 7.03491 18.9553C6.85864 18.7529 5.31422 18.5055 5.06241 18.8653Z" fill="#281B12"/>
<path d="M9.91439 23.303C9.91439 23.258 9.906 23.213 9.906 23.1681C9.88082 22.7858 9.26809 22.5834 8.69732 22.5834C8.37836 22.5834 8.10977 22.6508 7.95029 22.7708C7.95029 22.7708 7.9419 22.7708 7.9419 22.7783C7.92511 22.7933 7.58937 23.0781 7.4131 23.4154C7.22005 23.7828 7.09414 24.2925 7.37113 24.5399C7.57258 24.7198 8.27764 24.7273 8.42033 24.7273C8.84001 24.7273 9.57865 24.6748 9.75491 24.33C9.95636 23.9252 9.93957 23.6553 9.91439 23.303Z" fill="#281B12"/>
<path opacity="0.54" d="M9.60365 24.27C9.81349 23.8502 9.77153 23.5954 9.74634 23.1756C9.72116 22.7558 8.47052 22.5609 8.04244 22.8832C8.04244 22.8832 7.79064 23.0931 7.61437 23.3555C7.72349 23.363 8.21032 23.6253 8.59642 23.7903C9.03289 23.9777 8.97413 24.1201 8.71393 24.3375C8.47052 24.5399 8.15995 24.5773 7.47168 24.4424C7.47168 24.4424 7.47168 24.4424 7.48007 24.4499C7.69831 24.6298 9.39381 24.6973 9.60365 24.27Z" fill="#281B12"/>
<path d="M16.3772 21.8862C16.3772 21.8488 16.3688 21.8113 16.3688 21.7738C16.3521 21.4515 15.8316 21.2791 15.3532 21.2791C15.0846 21.2791 14.858 21.339 14.7237 21.4365C14.7237 21.4365 14.7237 21.4365 14.7153 21.444C14.7069 21.4515 14.4131 21.6913 14.2704 21.9762C14.111 22.2835 14.0018 22.7183 14.2369 22.9207C14.4047 23.0706 15.0007 23.0781 15.1182 23.0781C15.4707 23.0781 16.0918 23.0331 16.2345 22.7408C16.4192 22.411 16.4024 22.1786 16.3772 21.8862Z" fill="#281B12"/>
<path opacity="0.54" d="M16.1252 22.7034C16.3015 22.351 16.2679 22.1337 16.2428 21.7813C16.226 21.429 15.1684 21.2716 14.8158 21.534C14.8158 21.534 14.606 21.7064 14.4549 21.9313C14.5472 21.9388 14.9585 22.1561 15.2859 22.2986C15.6552 22.456 15.5964 22.5759 15.3866 22.7558C15.1852 22.9282 14.9166 22.9582 14.3374 22.8383C14.5137 23.0032 15.949 23.0557 16.1252 22.7034Z" fill="#281B12"/>
<path d="M6.5987 16.3691C6.22938 15.9343 5.53271 15.4921 4.79408 15.4921C4.58424 15.4921 4.38279 15.5295 4.18974 15.597C4.15616 15.6045 4.13098 15.627 4.12259 15.657C4.1142 15.6645 3.56022 16.5715 2.98106 16.8489C2.28439 17.1787 2.04098 17.5385 2.09134 18.1082C2.12491 18.438 2.29279 18.543 2.50263 18.6779C2.70407 18.8054 2.98106 18.9778 3.34199 19.435C3.61897 19.7874 3.82042 20.0947 3.9715 20.3421C4.24849 20.7843 4.44155 21.0842 4.81926 21.1367C4.86123 21.1442 4.99552 21.1816 5.17179 21.1816C5.45717 21.1816 5.70898 21.0992 5.90203 20.9418C6.17063 20.7244 6.32171 20.3795 6.36368 19.9073C6.36368 19.8848 6.36368 19.8698 6.35529 19.8473C6.34689 19.8248 6.10348 19.3151 5.63344 19.1952C5.54111 19.1727 5.45717 19.1577 5.38163 19.1427C5.13821 19.0977 4.97034 19.0677 4.65139 18.7004C4.43315 18.4605 4.30725 18.2731 4.22331 18.1532C4.2401 18.1532 4.25689 18.1532 4.28207 18.1532C4.60942 18.1532 5.11303 18.1082 5.6754 17.8908C6.29653 17.651 6.68264 17.3511 6.77496 17.0213C6.84211 16.8114 6.78336 16.5865 6.5987 16.3691Z" fill="#4E2913"/>
<path d="M4.24842 15.7169C4.24842 15.7169 3.66927 16.6614 3.04814 16.9613C2.42701 17.2611 2.1836 17.561 2.23396 18.1007C2.28432 18.6404 2.68722 18.4005 3.45943 19.3675C4.23164 20.3345 4.34915 20.9567 4.85276 21.0242C4.85276 21.0242 6.10341 21.3915 6.22092 19.9072C6.22092 19.9072 6.00269 19.435 5.59979 19.33C5.18851 19.2251 4.99545 19.3076 4.5422 18.7903C4.08895 18.2731 3.98822 18.0182 3.98822 18.0182C3.98822 18.0182 4.73525 18.1232 5.62497 17.7783C6.51469 17.4335 6.92598 16.9613 6.48951 16.444C6.05305 15.9343 5.11296 15.3946 4.24842 15.7169Z" fill="url(#paint1_linear_2610_12240)"/>
<path d="M17.5354 16.7588C17.3676 16.6539 17.2416 16.4365 17.1913 16.1666C17.1745 16.0617 17.25 15.7619 17.3256 15.4695C17.4347 15.0422 17.569 14.51 17.5522 14.0977C17.527 13.4381 17.4011 11.2117 16.6541 10.3646C15.9322 9.54007 15.5629 9.29269 14.7739 9.0903C14.3878 8.99285 14.136 8.93288 13.901 8.93288C13.6492 8.93288 13.4394 9.00034 13.154 9.12028C12.7343 9.29269 12.3734 9.44262 11.6599 9.44262C11.4669 9.44262 11.257 9.43512 11.022 9.41263C10.4428 9.36016 10.1155 9.27021 9.91404 9.10529C9.72099 8.94787 9.63705 8.71549 9.59508 8.29571C9.51954 7.44115 9.33488 5.81449 9.32649 5.7995C9.31809 5.75452 9.29291 5.71704 9.25934 5.69455C9.09986 5.6046 8.90681 5.55212 8.68018 5.55212C8.05905 5.55212 7.3456 5.90444 6.86716 6.20429C6.24604 6.58659 5.62491 7.10382 5.18005 7.61356C4.79395 8.05583 4.35748 8.693 4.50017 9.19524C4.78555 10.2297 4.03013 11.8339 3.57688 12.7934C3.51812 12.9133 3.46776 13.0183 3.42579 13.1232C2.95575 14.1502 2.88021 14.8323 3.6692 16.1592C3.96298 16.6539 4.39105 17.0137 4.93664 17.2236C5.3815 17.396 5.79278 17.4185 6.00262 17.4185C6.05299 17.4185 6.08656 17.4185 6.11174 17.4185C6.59018 17.6134 7.15255 17.7183 7.78207 17.7183C8.35283 17.7183 8.7893 17.6359 8.89841 17.6134C9.1754 17.6284 9.45239 17.6434 9.72099 17.6434C11.9621 17.6434 13.2799 17.0362 13.7079 16.7963C14.2283 17.6509 14.9838 17.7783 15.4035 17.7783C15.5377 17.7783 15.6469 17.7633 15.7392 17.7483C15.7392 17.9357 15.7224 18.333 15.6049 19.1201C15.479 19.9597 15.1516 20.4319 14.883 20.8142C14.7487 21.0017 14.6396 21.1666 14.5809 21.3315C14.5305 21.4664 14.5473 21.6013 14.6312 21.7213C14.8411 22.0211 15.4118 22.1111 15.479 22.1186H15.4874C15.5881 22.1261 15.6804 22.1336 15.7644 22.1336C16.0162 22.1336 16.1924 22.0886 16.461 22.0286C16.5114 22.0136 16.5702 22.0061 16.6289 21.9911C16.8304 21.9462 16.9395 21.8487 16.9731 21.7063C16.9982 21.5938 16.9647 21.4664 16.9311 21.324C16.8975 21.1891 16.8639 21.0316 16.8639 20.8517C16.8639 20.5519 17.1241 19.8772 17.3508 19.2775C17.527 18.8053 17.7033 18.3555 17.7537 18.0857C17.8376 17.5909 17.8796 16.9687 17.5354 16.7588Z" fill="#4E2913"/>
<path d="M9.17532 5.82206C9.17532 5.82206 9.36837 7.45622 9.44392 8.31078C9.51946 9.17283 9.83002 9.45019 11.0051 9.55514C12.1802 9.66008 12.6419 9.48767 13.2126 9.25529C13.7918 9.02291 13.9597 9.0379 14.7235 9.2328C15.4957 9.4277 15.8314 9.66008 16.5281 10.4547C17.2248 11.2493 17.3675 13.3932 17.3926 14.1053C17.4178 14.8174 16.9814 15.8894 17.0317 16.1892C17.0821 16.4891 17.2248 16.7439 17.443 16.8789C17.6612 17.0063 17.7116 17.4336 17.5857 18.0632C17.4682 18.6854 16.696 20.2971 16.696 20.8518C16.696 21.4065 17.0317 21.7513 16.5785 21.8638C16.1252 21.9687 15.9573 22.0362 15.4957 21.9912C15.4957 21.9912 14.5556 21.8638 14.7235 21.3915C14.8914 20.9193 15.5628 20.447 15.7559 19.1577C15.949 17.8683 15.8734 17.591 15.8734 17.591C15.8734 17.591 14.5053 18.0183 13.7582 16.6015C13.7582 16.6015 12.1467 17.6959 8.88154 17.4785C8.88154 17.4785 7.38748 17.8234 6.14523 17.2837C6.14523 17.2837 4.6092 17.4336 3.81181 16.0993C3.01442 14.7649 3.14033 14.1278 3.5684 13.1758C4.00487 12.2313 4.98692 10.3647 4.65117 9.15784C4.32382 7.96596 7.92467 5.08744 9.17532 5.82206Z" fill="url(#paint2_linear_2610_12240)"/>
<path d="M4.19798 1.82661C4.19798 1.82661 3.86223 0.642218 3.23271 0.732171C2.61159 0.814629 3.32504 2.57622 3.68597 2.6212C4.05528 2.66617 4.44139 2.21641 4.19798 1.82661Z" fill="url(#paint3_linear_2610_12240)"/>
<path d="M9.23426 4.8026C8.95727 3.66319 8.25221 3.08599 7.90807 2.80863C7.8661 2.77115 7.82413 2.74117 7.79056 2.71118C7.78217 2.70369 7.77377 2.69619 7.76538 2.69619C7.7402 2.6812 7.13586 2.34387 6.13702 2.34387C5.82646 2.34387 5.5075 2.37386 5.18855 2.44132C3.91272 2.70369 3.53501 3.4608 3.13212 4.25539C3.03139 4.45029 2.93906 4.64519 2.82155 4.84758C2.21721 5.88205 1.33589 7.00647 1.03372 7.26134C0.87424 7.39627 0.689581 7.50871 0.530102 7.61365C0.353837 7.7261 0.202752 7.81605 0.110423 7.9135C-0.0658427 8.09341 0.00969916 8.42324 0.0600607 8.64812C0.0684543 8.6856 0.0768483 8.73807 0.0768483 8.75307C0.0768483 8.76056 0.0936355 9.60763 0.412592 9.97494C0.756729 10.3797 1.15962 10.5671 1.62127 10.5296C1.80593 10.5147 1.91505 10.4997 1.98219 10.4772C2.08292 10.5521 2.26758 10.6496 2.52778 10.6871C2.59493 10.6946 2.67047 10.7021 2.74601 10.7021C2.97264 10.7021 3.72806 10.6496 4.08899 9.93746C4.15613 9.83251 4.34919 9.56265 4.53385 9.48019C4.55903 9.47269 4.58421 9.4577 4.62618 9.44271C4.91156 9.30778 5.58305 9.00044 6.12863 9.00044C6.1706 9.00044 6.20417 9.00044 6.24614 9.00794C6.2965 9.01543 6.35526 9.01543 6.40562 9.01543C6.80851 9.01543 7.29534 8.90299 7.72341 8.72308C8.09273 8.56566 8.58795 8.26582 8.87333 7.77107C9.42731 6.80407 9.51964 6.00199 9.23426 4.8026Z" fill="#4E2913"/>
<path d="M7.69833 2.79365C7.69833 2.79365 6.73307 2.24643 5.22222 2.56127C3.71137 2.87611 3.53511 3.88809 2.94756 4.90756C2.36001 5.92703 1.46189 7.08144 1.12615 7.3513C0.798797 7.62866 0.379117 7.82356 0.202852 7.99597C0.0265865 8.16838 0.202852 8.66312 0.202852 8.76057C0.202852 8.85802 0.24482 9.60014 0.513415 9.91498C0.773616 10.2298 1.12615 10.4622 1.60458 10.4247C2.08302 10.3872 1.9739 10.3273 1.9739 10.3273C1.9739 10.3273 2.16695 10.5222 2.54466 10.5821C2.91398 10.6421 3.63583 10.5447 3.97158 9.89999C3.97158 9.89999 4.21499 9.51019 4.47519 9.39025C4.73539 9.27031 5.59154 8.84303 6.24624 8.903C6.90094 8.96297 8.23552 8.61065 8.73914 7.72611C9.24275 6.84906 9.39384 6.08445 9.09167 4.8326C8.79789 3.58074 7.95853 3.03353 7.69833 2.79365Z" fill="url(#paint4_linear_2610_12240)"/>
<path opacity="0.37" d="M7.8493 2.92104C7.79054 2.87606 7.74018 2.83108 7.69821 2.8011C7.69821 2.8011 6.73295 2.25388 5.2221 2.56872C3.71126 2.88355 3.53499 3.89553 2.94744 4.91501C2.469 5.73208 1.79752 6.63912 1.38623 7.10388C1.75555 6.83402 2.15005 6.43672 2.46061 6.18185C3.16567 5.60465 3.14888 5.42474 3.68607 5.21485C4.23166 5.00496 4.59258 5.13239 5.69214 4.50272C6.79171 3.87304 6.38042 3.1834 6.55669 2.95852C6.69098 2.77861 7.46319 2.86856 7.8493 2.92104Z" fill="#2D1F10"/>
<path opacity="0.45" d="M5.78437 4.84003C5.78437 4.84003 5.51577 4.91499 5.30593 5.62713C5.09609 6.33926 5.44862 6.834 5.44862 6.834C5.44862 6.834 5.49059 6.68408 6.09493 6.62411C6.69927 6.56414 7.22806 6.87148 7.22806 6.87148C7.22806 6.87148 7.7065 5.89699 7.37915 5.17736C7.37915 5.17736 7.35397 5.13988 7.11055 4.86252C6.87553 4.58516 6.46425 4.56268 6.28798 4.58516C6.10332 4.61515 5.99421 4.82504 5.78437 4.84003Z" fill="#2D1F10"/>
<path d="M7.87426 2.61368C7.86587 2.45626 7.73997 1.75912 5.98571 1.51175C5.70872 1.47427 5.41494 1.45178 5.10438 1.45178C3.43405 1.45178 1.82248 2.04398 1.22654 2.61368C0.513083 3.30333 0.286455 4.07543 0.269668 4.10541L0.168945 4.7051L0.487902 4.23285C0.462721 4.29282 0.445934 4.36028 0.429147 4.42775C0.244488 5.19235 0.387179 5.88949 0.6222 6.09938L0.798465 6.24931L0.840433 6.05441C0.840433 6.14436 0.85722 6.22682 0.882401 6.30178C1.08385 6.91646 1.17618 7.11886 1.17618 7.12636L1.26011 7.31376L1.4028 7.15634C1.43638 7.11886 2.17501 6.31677 2.56112 5.82203C2.81293 5.49969 2.91365 5.32728 2.95562 5.23733C3.13188 5.18486 3.6355 5.02744 3.92088 4.83254C3.97964 4.84003 4.08036 4.85503 4.20626 4.85503C4.60916 4.85503 5.22189 4.75008 5.82623 4.24034C6.56486 3.62566 6.5145 2.95101 6.43057 2.64367C6.85864 2.67365 7.4294 2.7711 7.58888 2.94351C7.67282 3.03347 7.73157 3.08594 7.81551 3.08594C7.86587 3.08594 7.90784 3.06345 7.94141 3.02597C7.97499 2.99599 8.01696 2.93602 7.87426 2.61368Z" fill="#4E2913"/>
<path d="M7.7486 2.65864C7.7486 2.65864 7.81575 1.89403 5.96916 1.63167C4.12257 1.3693 2.03256 2.03646 1.33589 2.71861C0.639225 3.40075 0.412598 4.18785 0.412598 4.18785C0.412598 4.18785 0.81549 3.52819 1.44501 3.34078C1.44501 3.34078 0.748341 3.76057 0.563682 4.50269C0.387416 5.2448 0.521714 5.91196 0.72316 6.09187C0.72316 6.09187 0.991756 4.92996 1.51216 4.48769C1.51216 4.48769 0.81549 5.73205 1.01694 6.35423C1.21838 6.97641 1.31071 7.1788 1.31071 7.1788C1.31071 7.1788 2.07453 6.33174 2.46063 5.8295C2.84674 5.32726 2.86353 5.20732 2.86353 5.20732C2.86353 5.20732 3.58538 5.00493 3.89594 4.76505C3.89594 4.76505 4.81923 4.98244 5.74253 4.20284C6.66582 3.41575 6.26293 2.5312 6.26293 2.5312C6.26293 2.5312 7.41286 2.56868 7.70663 2.89102C7.99201 3.22085 7.7486 2.65864 7.7486 2.65864Z" fill="#E9D685"/>
<path d="M11.3329 13.1383C11.3245 13.1308 11.3161 13.1233 11.2993 13.1158C11.2825 13.1083 11.0978 13.0259 10.8125 13.0259C10.3508 13.0259 9.64575 13.2208 8.89872 14.1503C7.96703 15.2972 8.15169 15.8894 8.38671 16.639C8.46225 16.8939 8.55459 17.1787 8.61334 17.5161C8.83157 18.8804 8.6721 19.5325 8.63013 19.5925C8.4035 19.9148 8.36993 20.2447 8.51262 20.5595C8.50422 20.6944 8.44547 21.3241 8.28599 21.6764C8.23563 21.7964 8.13491 21.9538 8.02579 22.1187C7.71523 22.6134 7.42984 23.0857 7.73201 23.2581C7.95025 23.3855 8.49583 23.513 8.98266 23.513C9.23447 23.513 9.42752 23.4755 9.56182 23.4005C9.67933 23.3406 9.81362 23.3256 9.94792 23.3106C10.1913 23.2881 10.5271 23.2581 10.4851 22.8083C10.4683 22.6584 10.4347 22.471 10.3844 22.2611C10.2753 21.7289 10.1242 20.9943 10.2417 20.1997C10.3508 19.4801 10.6698 18.7754 10.9803 18.0933C11.1482 17.7185 11.3245 17.3362 11.4588 16.9613C11.5763 16.6465 11.8365 15.8219 11.8868 14.9449C11.9372 14.0978 11.7525 13.4906 11.3329 13.1383Z" fill="#4E2913"/>
<path d="M11.2406 12.9508C11.2406 12.9508 10.2081 12.4561 9.00786 13.9778C7.80757 15.4995 8.52942 15.9718 8.73926 17.3511C8.95749 18.7229 8.8148 19.4575 8.73926 19.5624C8.66372 19.6674 8.4287 20.0272 8.63854 20.477C8.63854 20.477 8.58818 21.264 8.40352 21.6913C8.21046 22.1186 7.5138 23.0032 7.79918 23.1756C8.08456 23.348 9.10018 23.5429 9.48629 23.3255C9.8724 23.1081 10.4012 23.3705 10.3508 22.8307C10.3005 22.291 9.93954 21.2865 10.1074 20.1246C10.2753 18.9627 10.9468 17.8683 11.3329 16.7739C11.7274 15.6719 12.1051 13.7005 11.2406 12.9508Z" fill="url(#paint5_linear_2610_12240)"/>
<path d="M11.1986 4.35275C10.1746 3.4832 9.58701 3.14587 9.10857 3.14587C8.97427 3.14587 8.83998 3.17586 8.70568 3.22833C8.6721 3.24332 8.64692 3.25082 8.62174 3.26581C8.44548 3.34077 8.33636 3.38575 8.29439 3.4907C8.26082 3.59564 8.31957 3.69309 8.43708 3.8655C8.47066 3.91048 8.50423 3.96295 8.5462 4.03042C8.57978 4.09788 9.03303 5.01991 9.03303 6.15932C9.03303 6.56411 9.05821 6.98389 9.09178 7.38869C9.14215 8.15329 9.19251 8.88042 9.00785 9.19525C8.89034 9.39015 8.77283 9.55507 8.65532 9.71249C8.47066 9.96736 8.29439 10.2072 8.18528 10.4996C8.03419 10.9044 8.00901 11.2942 8.00901 11.3916C7.95865 11.5191 7.72363 12.1187 7.79078 12.9508C7.86632 13.8728 8.20206 14.4051 8.21885 14.4201L8.45387 14.7799L8.48745 14.3676C8.48745 14.3601 8.58817 13.2732 9.0666 12.8834C9.16733 12.8009 9.24287 12.7259 9.31841 12.6435L9.41913 12.7409C9.47789 12.7034 10.8125 11.7289 10.9887 10.597V10.5895V10.582C10.9887 10.5595 10.9887 9.98984 10.9216 9.61504C11.0811 9.44263 11.5511 8.81295 11.6602 7.56859C11.6602 7.5536 11.6602 7.53861 11.6602 7.53111L11.9288 6.99139C11.9372 6.9764 12.1135 6.62408 12.1051 6.12933C12.1051 5.66457 11.9456 4.98243 11.1986 4.35275Z" fill="#4E2913"/>
<path d="M8.67181 3.97045C8.67181 3.97045 9.17543 4.93745 9.17543 6.15932C9.17543 7.38119 9.44402 8.73799 9.12507 9.24773C8.8145 9.76496 8.47876 10.0873 8.31089 10.5371C8.14302 10.9868 8.14302 11.4141 8.14302 11.4141C8.14302 11.4141 7.85763 12.0363 7.92478 12.9358C8.00032 13.8354 8.33607 14.3526 8.33607 14.3526C8.33607 14.3526 8.4284 13.2132 8.95719 12.7859C9.48599 12.3586 9.51117 11.8864 9.51117 11.8864C9.51117 11.8864 9.7294 12.2087 9.31812 12.636C9.31812 12.636 10.6611 11.669 10.829 10.5745C10.829 10.5745 10.829 9.92988 10.7534 9.56257C10.7534 9.56257 11.3745 8.98536 11.5005 7.54611C11.618 6.10685 11.1143 5.78452 11.0892 5.72455C11.064 5.65708 11.811 6.09186 11.7858 6.92393C11.7858 6.92393 12.4573 5.58962 11.0892 4.43521C9.72101 3.27331 9.2174 3.14588 8.75575 3.34078C8.31089 3.54317 8.36125 3.4832 8.67181 3.97045Z" fill="#E9D685"/>
<g opacity="0.22">
<path d="M10.8377 9.48767C10.8125 9.49517 10.8041 9.49517 10.8041 9.49517C10.8041 9.49517 10.7957 9.51766 10.7705 9.56263C10.7873 9.55514 10.8125 9.52515 10.8377 9.48767Z" fill="#2D1F10"/>
</g>
<path d="M9.37701 1.34687C9.17556 1.15947 8.88178 1.12199 8.53765 1.24942C8.21869 1.36936 7.96688 1.72918 7.78222 2.32887C7.65632 2.75615 7.60596 3.14595 7.60596 3.16843C7.60596 3.17593 7.60596 3.19092 7.60596 3.19842C7.78222 4.18791 8.51246 4.27786 8.53765 4.27786C8.56283 4.27786 8.78106 4.31534 8.80624 4.31534C9.5197 4.31534 9.67917 2.92106 9.69596 2.50878C9.72114 2.20143 9.69596 1.63922 9.37701 1.34687Z" fill="#4E2913"/>
<path d="M7.63965 3.27341C7.63965 3.27341 7.82431 1.62426 8.53776 1.36189C9.42748 1.03206 9.60375 1.9166 9.57857 2.56127C9.55339 3.20594 9.37712 4.29288 8.83154 4.29288C8.28595 4.29288 7.8327 4.36034 7.63965 3.27341Z" fill="url(#paint6_linear_2610_12240)"/>
<path d="M23.1004 10.7844C22.6975 10.0873 22.0261 9.51008 21.1028 9.06781C21.0104 9.00034 20.9265 8.94038 20.8258 8.87291C20.5908 8.71549 20.3306 8.54308 19.9444 8.19076C19.6507 7.9209 18.996 7.52361 18.996 7.52361C18.996 7.52361 18.2909 7.13381 17.93 7.16379C17.3928 7.05885 16.8136 7.05885 16.2764 7.16379C15.6805 7.28373 15.7309 7.63605 15.756 7.87593C15.7896 8.10081 15.7812 8.18327 15.6217 8.25073C15.4958 8.29571 14.4215 8.76047 14.22 9.0828C14.8831 9.13528 16.1421 9.70498 16.5618 10.2972C16.7297 10.4096 16.9395 10.5745 17.2165 10.7994C17.972 11.4366 18.8029 12.7109 18.8533 14.0153C18.8953 15.2746 18.0391 17.2611 17.4096 18.2206C16.8052 19.1201 15.7896 19.7048 14.8244 19.7048C14.7908 19.7048 14.7572 19.7048 14.732 19.7048L13.708 19.7498L14.6901 19.9597C14.6985 19.9597 14.9587 20.0197 15.3448 20.0197C15.798 20.0197 16.3856 19.9447 16.9647 19.6523C16.7297 19.8772 16.4191 20.1021 16.0246 20.2071L14.7908 20.5369L16.075 20.4544C16.117 20.4544 17.2249 20.372 18.5008 19.6823C19.2478 19.2775 19.9025 18.7378 20.4481 18.0857C21.1196 17.2761 21.6148 16.2866 21.9253 15.1397C21.9337 15.1247 21.9673 14.9673 22.0093 14.7274C22.0177 14.9073 22.0093 15.0647 21.9841 15.1922C21.8414 15.8518 21.3546 16.7813 21.3462 16.7888L21.1028 17.2386L21.556 16.9462C21.5728 16.9387 21.9589 16.6839 22.345 16.1292C22.5549 15.8293 22.7899 15.3945 22.9326 14.8248L22.9074 15.432L23.2096 14.8098C23.2347 14.7574 23.7971 13.5505 22.7143 11.3691C23.3439 12.1112 23.7048 13.1307 23.7132 13.1457L23.8978 13.6854L23.9902 13.1232C24.0069 13.1157 24.0993 12.501 23.1004 10.7844Z" fill="#4E2913"/>
<path d="M23.8643 13.1157C23.8643 13.1157 23.9566 12.5385 22.9745 10.8369C22.5045 10.0273 21.7155 9.50258 21.0272 9.17275C20.7251 8.94787 20.4061 8.79045 19.8521 8.28071C19.3905 7.86093 18.3497 7.28373 17.93 7.29122C17.3173 7.16379 16.7465 7.20127 16.3184 7.29122C15.4539 7.46364 16.2932 8.13079 15.6889 8.36317C15.0846 8.60305 14.262 8.94037 14.4299 9.0903C14.4299 9.0903 14.8831 9.25521 15.286 9.42013C15.6973 9.59254 15.9575 9.89238 16.0246 9.88489C16.2429 9.92986 16.5283 10.0348 17.3256 10.702C18.1146 11.3691 18.9624 12.6734 19.0044 14.0078C19.0547 15.3421 18.1398 17.381 17.5355 18.2806C16.9311 19.1801 15.8568 19.8697 14.7236 19.8248C14.7236 19.8248 16.3856 20.1921 17.611 19.0302C17.611 19.0302 17.1074 20.0421 16.075 20.3195C16.075 20.3195 20.4732 20.0421 21.7994 15.1022C21.7994 15.1022 22.0932 13.8803 21.8918 12.9583C21.9673 13.2731 22.2695 14.6075 22.1352 15.2071C21.9925 15.8968 21.4889 16.8413 21.4889 16.8413C21.4889 16.8413 22.9997 15.8743 22.9577 13.513C22.9577 13.513 23.1256 14.0902 23.1004 14.7574C23.1004 14.7574 23.7216 13.468 22.4541 11.1292C22.3786 10.9868 22.303 10.8594 22.2359 10.7394C23.2683 11.4066 23.8643 13.1157 23.8643 13.1157Z" fill="#E9D685"/>
<path d="M5.67531 6.70662C5.67531 6.70662 5.1549 5.48475 6.01944 4.90005C6.63217 4.48776 7.16097 4.91504 7.2533 5.47725C7.34563 6.03197 6.91756 6.72161 6.91756 6.72161C6.91756 6.72161 6.27964 6.52671 5.67531 6.70662Z" fill="#FBF4E5"/>
<path d="M6.96015 5.79784C6.99544 5.44319 6.8032 5.13816 6.53076 5.11654C6.25832 5.09492 6.00886 5.36489 5.97357 5.71954C5.93828 6.07419 6.13052 6.37922 6.40296 6.40085C6.6754 6.42247 6.92486 6.1525 6.96015 5.79784Z" fill="#18150C"/>
<path d="M5.44051 7.91344C5.44051 7.91344 5.10477 7.83098 5.12995 7.92843C5.14674 7.9884 5.25585 8.01838 5.34818 8.05586C5.1971 8.24327 4.6767 8.85045 3.71983 9.5326C2.79653 10.1998 2.22577 10.3347 2.03271 10.3647C2.07468 10.3947 2.13344 10.4321 2.20898 10.4696C2.63705 10.3047 3.24979 9.95988 4.08075 9.39018C4.83618 8.87294 5.33979 8.33322 5.49088 8.16081C5.54124 8.23577 5.65875 8.1758 5.65875 8.14582C5.66714 8.11583 5.64196 8.00339 5.44051 7.91344Z" fill="#4E2913"/>
<path d="M2.21729 9.63013C2.21729 9.63013 2.38516 9.19536 2.81323 9.20285C3.23291 9.21035 3.28327 9.41275 3.19094 9.47272C3.09861 9.53268 2.95592 9.44273 2.79644 9.39775C2.62857 9.35278 2.43552 9.39026 2.21729 9.63013Z" fill="#4E2913"/>
<path d="M3.2832 8.58813C3.2832 8.58813 3.56019 8.61062 3.57698 8.90297C3.59377 9.18782 3.40911 9.2328 3.49304 9.24029C3.57698 9.24779 3.77842 9.15784 3.70288 8.843C3.62734 8.52816 3.31678 8.57314 3.2832 8.58813Z" fill="#6B3B19"/>
<path d="M6.12012 4.0904C6.12012 4.0904 6.60695 3.8805 7.11056 4.18785C7.11056 4.18785 7.42112 4.42772 7.44631 4.69758C7.44631 4.69758 7.55542 4.15786 7.00144 3.94797C6.43907 3.73808 6.24602 3.96296 6.12012 4.0904Z" fill="#6B3B19"/>
<path d="M4.42472 6.30933C4.42472 6.30933 4.00504 6.66165 3.50143 7.30631C2.99781 7.95848 2.93066 8.00345 2.93066 8.00345C2.93066 8.00345 3.43428 7.57618 3.85396 7.09642C4.27364 6.60917 4.69332 6.1744 4.42472 6.30933Z" fill="#6B3B19"/>
<path d="M3.32508 8.67807C3.32508 8.67807 3.09006 8.35573 2.52769 8.56563C1.96531 8.77552 2.00728 9.01539 2.43536 8.90295C2.87182 8.79051 3.0313 8.93294 3.17399 8.91794C3.32508 8.90295 3.46777 8.8055 3.32508 8.67807Z" fill="url(#paint7_linear_2610_12240)"/>
<path d="M2.89697 5.19991C2.93894 5.19241 2.9977 5.16993 3.08163 5.13994C3.19075 4.90007 3.33344 4.40532 3.22432 3.70068C3.22432 3.70068 3.17396 4.49527 2.89697 5.19991Z" fill="#4E2913"/>
<path d="M4.5424 4.21038C5.00404 3.61818 4.73545 2.93604 4.73545 2.93604C4.87814 4.14291 3.8877 4.76509 3.8877 4.76509C3.8877 4.76509 3.98002 4.78758 4.13111 4.79508C4.23183 4.64515 4.35774 4.45025 4.5424 4.21038Z" fill="#4E2913"/>
<path d="M2.22577 3.50574C2.20898 3.51323 2.20898 3.52073 2.20898 3.52073C2.20898 3.52073 2.21738 3.52073 2.22577 3.50574Z" fill="#FBF4E5"/>
<path opacity="0.33" d="M8.92351 1.6017C8.92351 1.6017 8.4115 1.81908 8.19327 2.47125C7.98343 3.12341 7.92467 3.90301 8.19327 4.09041C8.46186 4.27782 9.00745 4.21035 9.19211 3.58068C9.36837 2.951 9.61179 1.56422 8.92351 1.6017Z" fill="#2D1F10"/>
<path d="M9.25091 19.3076C9.25091 19.3076 8.7389 19.51 8.67175 19.9673C8.6046 20.4245 8.7389 20.6719 9.10822 20.6119C9.47754 20.552 9.60344 19.9523 9.60344 19.9523C9.60344 19.9523 9.79649 20.537 9.16697 20.7544C8.54585 20.9718 8.42834 20.3571 8.51227 19.9973C8.58781 19.6374 8.94035 19.3826 9.25091 19.3076Z" fill="#4E2913"/>
<path d="M15.9154 14.57C16.1504 13.4231 15.7391 12.9509 15.7055 12.9209C15.7055 12.9209 16.0832 13.7305 15.7223 14.6075C15.3698 15.4846 14.5304 16.2417 13.7162 16.624C13.5903 16.684 13.4896 16.7439 13.4141 16.7964C13.6491 16.684 13.7666 16.6015 13.7666 16.6015C13.8002 16.6615 13.8337 16.7214 13.8673 16.7814C13.8673 16.7814 15.6887 15.7095 15.9154 14.57Z" fill="#4E2913"/>
<path d="M16.8809 16.6914C16.7382 17.2761 15.8149 17.5834 15.8149 17.5834L15.731 17.6209C15.8317 17.6059 15.8904 17.5834 15.8904 17.5834C15.8904 17.5834 15.9072 17.6359 15.9072 17.7858C16.0583 17.7259 16.1926 17.6059 16.4948 17.3885C16.8809 17.1262 16.8809 16.6914 16.8809 16.6914Z" fill="#4E2913"/>
<path d="M17.4348 19.1877L17.3677 19.2552C17.4013 19.2252 17.4348 19.2027 17.4684 19.1727C17.4432 19.1802 17.4348 19.1877 17.4348 19.1877Z" fill="#A57B4E"/>
<path d="M20.4315 15.0498C20.0622 17.7709 18.0981 18.8728 17.5693 19.1277C17.5189 19.2102 17.435 19.3451 17.3091 19.495C18.5933 18.7979 19.4494 17.9433 19.9279 17.0663C20.4567 16.0993 20.4315 15.0498 20.4315 15.0498Z" fill="#4E2913"/>
<path d="M14.1108 9.06034C14.1108 9.06034 15.4538 9.3377 16.268 10.1248H16.3771C16.3771 10.1248 15.9239 9.3377 14.1444 8.96289L14.1108 9.06034Z" fill="#4E2913"/>
<path opacity="0.28" d="M9.28467 23.3855C9.3686 23.3705 9.43575 23.348 9.49451 23.318C9.86383 23.1081 10.3674 23.3405 10.359 22.8832C10.2415 22.9957 10.1156 22.8682 10.0485 22.6583C9.95615 22.3585 9.61202 21.9162 9.59523 22.6059C9.58684 22.9507 9.43575 23.213 9.28467 23.3855Z" fill="#2D1F10"/>
<path d="M8.20161 10.9044C8.14286 11.1968 8.14286 11.4216 8.14286 11.4216C8.14286 11.4216 8.13446 11.4441 8.11768 11.4891C8.15964 11.3917 8.21001 11.2792 8.26037 11.1443C8.49539 10.5596 9.68728 9.83997 9.68728 9.83997C9.07455 10.0948 8.51217 10.5896 8.20161 10.9044Z" fill="#4E2913"/>
<path opacity="0.28" d="M16.7383 21.2041C16.6796 21.429 16.6208 21.6164 16.604 21.384C16.5872 21.0692 16.327 20.8743 16.369 21.369C16.3942 21.7064 16.1424 21.9088 15.9829 21.9912C16.1592 21.9687 16.327 21.9238 16.5789 21.8638C16.9314 21.7738 16.8139 21.5565 16.7383 21.2041Z" fill="#2D1F10"/>
<path d="M2.21729 18.3706C2.21729 18.3706 2.75448 18.6929 2.93074 18.3481C3.1154 18.0033 3.12379 17.621 3.12379 17.621C3.12379 17.621 3.20773 17.9433 3.09861 18.2506C2.9895 18.558 2.86359 18.7079 2.62857 18.6404C2.38516 18.5805 2.21729 18.3706 2.21729 18.3706Z" fill="#4E2913"/>
<path opacity="0.28" d="M5.58315 20.9867C5.52439 20.9418 5.44046 20.9118 5.32295 20.9118C4.68503 20.8818 4.01355 19.7424 3.58547 19.0153C3.1574 18.2881 3.30009 17.8459 2.93917 18.3556C2.83005 18.5055 2.72093 18.573 2.61182 18.5955C2.81326 18.7229 3.09864 18.9103 3.46796 19.3676C4.24017 20.3346 4.35768 20.9568 4.8613 21.0242C4.85291 21.0167 5.22222 21.1292 5.58315 20.9867Z" fill="#2D1F10"/>
<path opacity="0.28" d="M13.4479 20.0497C13.2968 19.8173 13.2549 19.6824 13.1625 20.2821C13.129 20.4845 13.0282 20.6344 12.9023 20.7468C13.0199 20.7169 13.1206 20.6944 13.1625 20.6794C13.3052 20.6344 13.5738 20.5594 13.599 20.1846C13.5486 20.1621 13.4899 20.1172 13.4479 20.0497Z" fill="#2D1F10"/>
<defs>
<linearGradient id="paint0_linear_2610_12240" x1="12.6026" y1="21.3086" x2="13.6743" y2="11.6452" gradientUnits="userSpaceOnUse">
<stop stop-color="#A65325"/>
<stop offset="0.9879" stop-color="#AF7F48"/>
</linearGradient>
<linearGradient id="paint1_linear_2610_12240" x1="6.471" y1="19.5083" x2="1.34541" y2="13.7431" gradientUnits="userSpaceOnUse">
<stop stop-color="#A65325"/>
<stop offset="0.9879" stop-color="#AF7F48"/>
</linearGradient>
<linearGradient id="paint2_linear_2610_12240" x1="8.25542" y1="22.9344" x2="13.8146" y2="1.25679" gradientUnits="userSpaceOnUse">
<stop stop-color="#A65325"/>
<stop offset="0.9879" stop-color="#AF7F48"/>
</linearGradient>
<linearGradient id="paint3_linear_2610_12240" x1="2.99224" y1="1.67581" x2="4.27455" y2="1.67581" gradientUnits="userSpaceOnUse">
<stop stop-color="#A65325"/>
<stop offset="0.9879" stop-color="#AF7F48"/>
</linearGradient>
<linearGradient id="paint4_linear_2610_12240" x1="2.90028" y1="12.2864" x2="6.10065" y2="1.17414" gradientUnits="userSpaceOnUse">
<stop stop-color="#A65325"/>
<stop offset="0.9879" stop-color="#AF7F48"/>
</linearGradient>
<linearGradient id="paint5_linear_2610_12240" x1="7.65597" y1="23.8172" x2="11.5639" y2="10.121" gradientUnits="userSpaceOnUse">
<stop stop-color="#A65325"/>
<stop offset="0.9879" stop-color="#AF7F48"/>
</linearGradient>
<linearGradient id="paint6_linear_2610_12240" x1="8.03729" y1="5.86774" x2="8.727" y2="1.59605" gradientUnits="userSpaceOnUse">
<stop stop-color="#A65325"/>
<stop offset="0.9879" stop-color="#AF7F48"/>
</linearGradient>
<linearGradient id="paint7_linear_2610_12240" x1="2.74692" y1="9.22309" x2="2.74692" y2="7.949" gradientUnits="userSpaceOnUse">
<stop stop-color="#A65325"/>
<stop offset="0.6659" stop-color="#AF7F48"/>
</linearGradient>
</defs>
</svg>
