<svg width="24" height="25" viewBox="0 0 24 25" fill="none" xmlns="http://www.w3.org/2000/svg">
<path d="M20.347 24.7127C19.8714 24.2469 19.2162 23.9848 18.5789 23.7009C13.5797 21.5025 8.40987 21.4225 3.13239 22.9657C2.99776 23.0021 2.8721 23.0458 2.70157 23.0385C2.96185 22.9002 3.23111 22.7619 3.4914 22.6163C2.26178 22.8565 1.15782 23.3515 0 23.7519C2.1092 21.9466 4.66716 20.6581 7.40464 19.5444C7.1623 19.3624 6.87509 19.3843 6.64173 19.3115C6.00449 19.1149 5.86088 18.649 6.33657 18.256C7.40464 17.3752 7.60209 16.2687 7.59312 15.1113C7.58414 13.7792 7.37771 12.4543 7.73672 11.1295C7.84443 10.7437 7.38669 10.6199 7.0546 10.4816C6.72251 10.3433 6.39043 10.3433 6.12117 10.6054C5.82498 10.9038 5.73523 11.2532 5.73523 11.6245C5.75318 12.4325 5.80703 13.2332 5.81601 14.0412C5.82498 14.6891 5.71728 15.3224 5.37621 15.912C5.0531 16.4725 4.58639 16.8947 3.5991 16.953C4.9454 15.8611 4.24532 14.7182 3.96709 13.6117C3.70681 12.5635 3.32087 11.5444 3.19521 10.4743C2.89005 7.94113 4.11967 5.93203 6.3635 4.25778C9.22663 2.12493 12.6462 1.06942 16.4787 0.836485C16.712 0.821926 16.9723 0.872882 17.1788 0.727295C17.3044 0.727295 17.4211 0.727295 17.5467 0.727295C18.0583 0.901999 18.6148 0.858323 19.1533 0.923837C20.3201 1.06942 21.469 1.25869 22.5011 1.75368C22.4652 1.79736 22.4473 1.83376 22.4203 1.84831C22.178 1.93567 21.9357 2.00846 21.6933 2.09581C19.8444 2.75823 18.3096 3.71183 17.3313 5.18225C17.1967 5.38608 16.8646 5.61174 17.4031 5.79372C17.5467 5.84467 17.3942 5.99754 17.3403 6.09945C17.1249 6.48526 17.0441 6.87834 17.1339 7.30054C17.2057 7.63539 17.5737 7.67907 17.8519 7.75186C18.1391 7.83194 18.175 7.55532 18.2648 7.40973C18.4443 7.11128 18.5969 6.79827 18.7764 6.46342C20.5804 9.05487 22.546 13.9611 22.528 15.8028C22.1331 15.7373 21.8639 15.4971 21.5318 15.3588C21.3882 15.3005 21.2535 15.3005 21.1369 15.3806C21.0202 15.4607 21.0471 15.5626 21.1279 15.6427C21.3074 15.8319 21.1817 16.0066 21.1279 16.1959C20.9753 16.771 20.7958 17.3315 21.2984 17.8993C21.7651 18.4307 22.0703 19.0567 22.4832 19.6245C22.9589 20.2869 23.3807 20.9784 24 21.5681C24 21.6336 24 21.6991 24 21.7646C23.7846 21.8083 23.6051 21.8083 23.3897 21.7064C22.5191 21.3206 21.6395 20.9493 20.7599 20.5926C20.0598 20.3087 19.5213 20.2068 19.1174 20.2432C20.347 21.306 21.8908 22.1359 23.0576 23.4461C22.8512 23.3733 22.7794 23.3588 22.7076 23.3297C21.9626 23.0312 21.1907 22.791 20.374 22.6454C20.0419 22.5872 19.7995 22.5799 19.9701 22.9584C20.2304 23.5335 20.3111 24.1377 20.4727 24.7273C20.4278 24.7127 20.3919 24.7127 20.347 24.7127ZM17.7622 1.3606C17.7083 1.25141 17.6275 1.26597 17.5557 1.26597C12.9334 1.25141 8.99327 2.54713 5.84293 5.31328C4.78384 6.24504 4.04787 7.32238 3.78758 8.67634C4.17352 8.42884 4.46971 8.20318 5.00823 8.02848C4.13762 8.76369 3.58115 9.45523 3.69783 10.3943C3.92221 12.134 4.76589 13.7719 4.9454 15.5189C5.30441 14.9293 5.31339 14.3106 5.30441 13.6918C5.28646 13.0003 5.23261 12.3087 5.24158 11.6245C5.25056 10.8092 5.5647 10.1322 6.65071 9.87743C6.83919 9.83376 7.00972 9.71729 6.92894 9.55714C6.85714 9.41883 6.63276 9.48435 6.48915 9.51346C6.06731 9.59354 5.7083 9.7828 5.42109 10.0449C5.21466 10.2341 5.03515 10.4379 4.72999 10.7364C5.11593 9.62993 5.95063 9.1131 7.1264 8.90928C7.32386 8.87288 7.62004 8.84377 7.59312 8.66906C7.55722 8.45068 7.26103 8.55259 7.08152 8.56715C6.05834 8.66178 5.35826 9.16406 4.76589 9.79736C5.0531 8.85832 5.78908 8.18134 6.93792 8.07215C8.03291 7.97024 8.87659 7.63539 9.60359 7.01665C9.64847 6.98025 9.70232 6.95114 9.75617 6.93658C10.187 6.76915 10.2678 6.52165 10.1421 6.14313C9.89977 5.38608 10.1062 4.67998 10.6986 4.05396C10.7076 4.19226 10.6627 4.31601 10.6447 4.43976C10.555 4.97843 10.4832 5.52438 10.8063 6.03394C10.8691 6.13585 10.914 6.31055 11.1473 6.2232C11.3807 6.13585 11.264 6.01938 11.1832 5.90291C10.9499 5.56806 10.9499 5.21137 10.9858 4.73094C11.1653 5.05851 11.264 5.27689 11.4076 5.47343C11.5423 5.65541 11.7218 5.93931 11.9641 5.88107C12.5116 5.74276 13.1668 5.77916 13.5438 5.26961C14.181 4.41792 15.0337 3.74822 16.1645 3.3333C15.4016 3.93021 14.7554 4.58535 14.3067 5.37152C14.6567 5.46615 14.8631 5.37152 15.0247 5.13858C15.1862 4.89108 15.3837 4.65814 15.5901 4.43976C16.3889 3.58808 17.3583 2.88926 18.5879 2.45978C18.5071 2.55441 18.3994 2.6272 18.2917 2.7C17.3044 3.35514 16.5325 4.14859 16.0658 5.12402C16.012 5.24049 15.8773 5.39336 16.1017 5.45159C16.2723 5.50255 16.5056 5.56806 16.6402 5.37152C16.6851 5.29872 16.721 5.21865 16.7659 5.14586C17.5467 3.92293 18.6328 2.92566 20.1047 2.21956C20.4188 2.06669 20.7509 1.93567 21.1548 1.76096C18.7315 0.901999 16.9903 2.00118 15.1593 2.83103C15.3478 2.64904 15.5542 2.4889 15.7696 2.33603C16.362 1.92839 17.0531 1.62265 17.7622 1.3606ZM10.196 19.2241C11.1384 19.2096 11.9641 19.1804 12.7898 19.0785C13.8848 18.9402 13.8758 18.9402 13.6335 18.0885C13.1668 16.4216 12.4757 14.8347 11.3179 13.4006C11.0935 13.1167 11.1114 13.0367 11.4705 12.8692C13.831 11.7409 15.9581 10.3943 17.6096 8.58899C17.8519 8.31965 17.7891 8.21046 17.466 8.07943C16.2363 7.58444 14.9708 7.32966 13.5886 7.50437C10.3396 7.91929 8.09574 9.97206 8.05086 12.629C8.03291 13.4516 8.11369 14.2742 8.12266 15.0967C8.13164 16.3051 7.93418 17.4771 6.87509 18.4088C6.42633 18.8019 6.69559 18.8674 7.10845 18.9621C8.15856 19.2096 9.2356 19.2096 10.196 19.2241ZM21.9357 14.9875C21.3343 12.367 20.2663 9.92839 18.8571 7.51165C18.534 7.91929 18.2737 8.29053 17.9686 8.63266C16.3979 10.4379 14.3336 11.7992 12.0179 12.9202C11.6859 13.0803 11.5602 13.1895 11.8025 13.5098C12.8347 14.8492 13.4899 16.3051 13.8938 17.8483C13.9835 18.1832 14.163 18.3433 14.5939 18.3943C17.0172 18.6927 19.288 19.3843 21.469 20.2869C21.8369 20.4398 22.196 20.5999 22.6178 20.7819C22.5909 20.68 22.5909 20.6436 22.5729 20.6217C21.2087 18.6927 19.9252 16.7419 18.8841 14.6818C18.7674 14.4561 18.543 14.3688 18.3096 14.2669C17.3224 13.8447 16.38 13.3715 15.4106 12.6363C15.9671 12.8037 15.9312 12.5635 15.9581 12.367C15.9761 12.2359 16.003 12.1049 16.003 11.9739C16.003 11.5808 16.1556 11.4207 16.6941 11.5444C17.6455 11.7628 18.6238 11.9156 19.5841 12.1122C19.8175 12.1631 20.0329 12.2359 20.1586 11.9375C20.4727 12.7528 20.7868 13.5025 21.0381 14.2596C21.1638 14.6454 21.442 14.8419 21.9357 14.9875ZM2.53104 22.427C4.88257 21.6336 7.30591 21.0512 9.83695 20.7964C12.4039 20.5344 14.926 20.68 17.4301 21.5025C17.2236 21.0439 16.8826 20.7528 16.5684 20.3597C17.6365 20.5708 18.5161 20.9056 19.4585 21.1313C18.2378 20.3379 16.8915 19.7628 15.3568 19.4934C15.2401 19.4716 14.9619 19.4207 14.9888 19.5298C15.1234 20.054 14.6387 19.7701 14.4951 19.7555C10.1152 19.508 6.18399 20.5708 2.53104 22.427ZM8.09574 10.5035C10.0075 7.83193 12.7629 6.69636 16.5595 7.41701C16.5864 7.08944 16.5684 6.75459 16.6672 6.44158C16.7749 6.07761 16.6043 5.99026 16.2094 5.93203C12.9783 5.48071 9.61257 6.7182 7.7457 9.06215C7.0546 9.93567 7.0546 9.93567 8.09574 10.5035ZM21.0202 22.2887C19.9342 21.6845 18.8033 21.1604 17.4211 20.8401C17.7083 21.3278 18.0135 21.6991 18.1212 22.1504C13.8938 20.3888 8.6163 21.0585 6.42633 21.7355C11.0396 21.0803 15.4196 21.4807 19.5213 23.6208C19.4495 22.9875 19.1533 22.4925 18.9559 21.9539C19.7277 21.9029 20.3381 22.2159 21.0202 22.2887ZM19.8983 14.4489C19.7457 14.6163 19.5752 14.7692 19.7547 14.922C20.1316 15.2569 20.5266 14.8055 20.9574 14.9511C20.733 14.3324 20.5266 13.7646 20.3111 13.2041C20.2573 13.0512 20.0598 12.8692 19.9791 13.0803C19.8265 13.4734 19.62 13.2623 19.4046 13.1968C18.9918 13.0876 18.5789 13.0439 18.1481 13.1386C18.0494 13.1604 17.807 13.1604 17.8609 13.1095C18.2019 12.7746 17.5378 12.8765 17.5826 12.7018C17.7442 12.5271 18.0494 12.5344 18.2378 12.2141C17.6634 12.4398 17.2775 12.3015 16.8826 12.0612C16.6941 11.952 16.3889 12.0321 16.3082 12.3233C16.1915 12.7237 16.2902 13.0148 16.7569 13.2259C17.448 13.5317 18.1391 13.8374 18.8033 14.1868C19.1354 14.3469 19.3418 14.7473 19.8983 14.4489ZM8.39192 19.9739C7.11743 19.7773 6.2917 20.5198 5.29544 20.9056C6.31862 20.5853 7.35078 20.2651 8.39192 19.9739ZM20.5894 15.7519C20.4278 15.6354 20.4368 15.3733 20.1316 15.4243C19.9701 15.4461 19.7277 15.468 19.7816 15.6645C19.8265 15.8392 19.9432 15.9994 20.2393 15.9411C20.3829 15.912 20.5535 15.9193 20.5894 15.7519Z" fill="#2B3E98"/>
<path d="M11.5423 14.8128C11.8205 14.8711 11.8205 15.0967 11.9102 15.2569C12.4577 16.2396 12.7898 17.266 12.8437 18.3651C12.6462 18.1031 12.4488 17.8338 12.2513 17.5717C11.8564 17.0476 11.4166 16.5599 10.8691 16.1377C10.1242 15.5626 9.54076 15.4971 8.62528 15.8829C8.77786 14.6818 8.32012 13.5244 8.55348 12.3306C8.91249 13.2478 9.33433 14.1286 10.2947 14.7546C10.9768 15.3078 11.2012 15.3224 11.5423 14.8128Z" fill="#2B3E98"/>
<path d="M13.2295 11.6462C13.9206 11.0566 14.6835 10.5179 15.3207 9.88465C15.5541 9.65899 15.7785 9.42605 15.958 9.17127C16.3709 8.57436 16.1824 8.19584 15.4105 7.9265C15.2848 7.88283 15.1502 7.84643 15.0335 7.76636C15.7516 7.83187 16.4247 8.00658 17.062 8.28319C17.403 8.42878 17.1876 8.57436 17.0709 8.71267C16.0567 9.90648 14.7194 10.8382 13.2295 11.6462Z" fill="#2B3E98"/>
<path d="M11.0399 19.0057C9.60382 19.0494 8.32035 18.9256 7.00098 18.649C7.31511 18.3433 7.59335 18.0667 7.86261 17.8119C8.45498 18.9402 9.87308 18.6126 11.0399 19.0057Z" fill="#2B3E98"/>
<path d="M11.5425 14.8128C11.1925 15.3151 10.9681 15.3078 10.2949 14.7618C10.4116 14.5726 10.5283 14.7473 10.6091 14.7837C10.8693 14.8856 11.0758 14.9074 11.2822 14.6963C11.5604 14.4342 11.4886 14.74 11.5425 14.8128Z" fill="#2B3E98"/>
<path d="M14.7104 15.5626C16.4427 15.9775 18.0403 16.6254 19.6558 17.5135C19.3327 16.7273 19.0545 16.043 18.7763 15.3588C19.611 16.6035 20.3469 17.8774 21.1547 19.1367C19.0814 17.841 17.0171 16.5599 14.7104 15.5626Z" fill="#2B3E98"/>
<path d="M18.8663 7.92651C19.5125 9.00386 20.042 10.0594 20.3921 11.1731C20.0869 10.6199 19.7907 10.0594 19.4676 9.52069C19.1086 8.9165 18.8483 8.88739 18.256 9.36054C17.4302 10.0302 16.5596 10.6563 15.5454 11.144C16.784 10.1904 17.9957 9.21496 18.8663 7.92651Z" fill="#2B3E98"/>
<path d="M17.8427 18.7655C16.7118 18.5253 15.5809 18.3287 14.4231 18.1904C14.2436 18.1686 14.2167 18.0594 14.1718 17.9502C14.0013 17.4625 13.8397 16.982 13.6333 16.3851C14.0551 16.8146 14.2616 17.215 14.468 17.6008C14.6026 17.8628 14.8001 17.9648 15.1322 18.0157C16.0746 18.1613 16.999 18.3578 17.8427 18.7655Z" fill="#2B3E98"/>
<path d="M12.5654 7.19139C13.4181 6.8711 14.3246 6.71096 15.258 6.84198C15.8145 6.91478 16.2992 7.00941 16.353 6.31787C16.4158 6.64544 16.2902 6.92206 16.4697 7.26419C15.1054 6.88566 13.8399 6.92206 12.5654 7.19139Z" fill="#2B3E98"/>
</svg>
