<?xml version="1.0" encoding="UTF-8"?>
<svg version="1.1" xmlns="http://www.w3.org/2000/svg" width="28" height="28">
<path d="M0 0 C3.37254022 1.18397689 5.23549012 2.63387693 7.8125 5.09375 C8.59367187 5.82722656 9.37484375 6.56070312 10.1796875 7.31640625 C10.75976562 7.88230469 11.33984375 8.44820312 11.9375 9.03125 C11.7725 9.65 11.6075 10.26875 11.4375 10.90625 C10.66297426 14.19798441 11.24745737 16.7535475 11.9375 20.03125 C10.24616486 21.40658836 8.53361685 22.7558685 6.8125 24.09375 C5.86117188 24.84785156 4.90984375 25.60195313 3.9296875 26.37890625 C0.9375 28.03125 0.9375 28.03125 -2.125 28 C-5.34663262 26.93754669 -7.33957974 25.63368355 -9.9375 23.46875 C-11.10925781 22.50775391 -11.10925781 22.50775391 -12.3046875 21.52734375 C-12.88476562 21.03363281 -13.46484375 20.53992188 -14.0625 20.03125 C-13.8975 19.2475 -13.7325 18.46375 -13.5625 17.65625 C-12.93519677 14.36290804 -13.20799078 12.23565957 -14.0625 9.03125 C-12.37323222 7.48926713 -10.66022426 5.97326252 -8.9375 4.46875 C-7.98617188 3.62183594 -7.03484375 2.77492187 -6.0546875 1.90234375 C-3.0625 0.03125 -3.0625 0.03125 0 0 Z M-6.1875 7.03125 C-7.27417969 7.8665625 -7.27417969 7.8665625 -8.3828125 8.71875 C-8.93710938 9.151875 -9.49140625 9.585 -10.0625 10.03125 C-8.5775 11.02125 -8.5775 11.02125 -7.0625 12.03125 C-7.0625 11.37125 -7.0625 10.71125 -7.0625 10.03125 C-4.62894121 8.49900928 -3.40528436 7.99780762 -0.5 8.28125 C1.9375 9.03125 1.9375 9.03125 4.9375 11.03125 C5.9275 10.70125 6.9175 10.37125 7.9375 10.03125 C6.65033353 9.02546411 5.35761342 8.02678202 4.0625 7.03125 C2.98355469 6.1959375 2.98355469 6.1959375 1.8828125 5.34375 C-1.6962659 2.92895012 -3.07982583 4.6253087 -6.1875 7.03125 Z M-6.0625 14.03125 C-4.44555196 15.78776531 -4.44555196 15.78776531 -2.0625 17.03125 C1.15924544 16.31901153 1.15924544 16.31901153 3.9375 15.03125 C2.64784824 13.65562146 1.31060707 12.32358607 -0.0625 11.03125 C-2.82473278 11.03125 -3.95531454 12.34550163 -6.0625 14.03125 Z M4.9375 16.03125 C4.9375 16.69125 4.9375 17.35125 4.9375 18.03125 C2.56537353 19.52481111 1.32804922 20.07130633 -1.5 19.78125 C-4.10399851 19.01910409 -6.56946162 18.09969502 -9.0625 17.03125 C-7.67975283 20.37288899 -6.27205991 22.28891748 -3.0625 24.03125 C1.33460202 23.91850379 3.72408035 21.87742169 6.9375 19.03125 C6.6075 18.04125 6.2775 17.05125 5.9375 16.03125 C5.6075 16.03125 5.2775 16.03125 4.9375 16.03125 Z " fill="#F85467" transform="translate(15.0625,-0.03125)"/>
</svg>
