<svg width="25" height="24" viewBox="0 0 25 24" fill="none" xmlns="http://www.w3.org/2000/svg">
<path d="M10.61 11.1501H7.96005C7.33005 11.1501 6.82007 11.6601 6.82007 12.2901V17.4101H10.61V11.1501V11.1501Z" stroke="#9CA1AB" stroke-width="1.5" stroke-miterlimit="10" stroke-linecap="round" stroke-linejoin="round"/>
<path d="M13.2613 6.6001H11.7413C11.1113 6.6001 10.6013 7.11011 10.6013 7.74011V17.4001H14.3913V7.74011C14.3913 7.11011 13.8913 6.6001 13.2613 6.6001Z" stroke="#9CA1AB" stroke-width="1.5" stroke-miterlimit="10" stroke-linecap="round" stroke-linejoin="round"/>
<path d="M17.0482 12.8501H14.3982V17.4001H18.1882V13.9901C18.1782 13.3601 17.6682 12.8501 17.0482 12.8501Z" stroke="#9CA1AB" stroke-width="1.5" stroke-miterlimit="10" stroke-linecap="round" stroke-linejoin="round"/>
<path d="M9.5 22H15.5C20.5 22 22.5 20 22.5 15V9C22.5 4 20.5 2 15.5 2H9.5C4.5 2 2.5 4 2.5 9V15C2.5 20 4.5 22 9.5 22Z" stroke="#9CA1AB" stroke-width="1.5" stroke-linecap="round" stroke-linejoin="round"/>
</svg>
