 <svg  version="1.0" xmlns="http://www.w3.org/2000/svg"  width="300.000000pt" height="114.000000pt" viewBox="0 0 300.000000 114.000000"  preserveAspectRatio="xMidYMid meet">  <g transform="translate(0.000000,114.000000) scale(0.100000,-0.100000)" fill="#0a5ee6" stroke="none"> <path d="M500 1060 c-111 -19 -247 -93 -312 -169 -49 -57 -107 -174 -118 -241 -12 -65 -15 -119 -7 -140 3 -8 8 -34 10 -58 8 -65 78 -198 140 -264 29 -32 56 -58 59 -58 16 0 -2 33 -41 77 -55 63 -63 73 -55 73 3 0 -1 11 -9 23 -26 40 -40 140 -35 255 4 95 8 116 35 174 110 234 395 317 644 188 36 -18 65 -27 79 -23 26 7 26 7 -28 -134 -34 -92 -52 -115 -52 -69 0 63 -243 115 -340 73 -47 -21 -93 -64 -113 -108 -79 -172 -14 -359 139 -404 63 -18 93 -19 198 -3 l81 11 0 64 0 63 -93 0 c-90 0 -93 -1 -102 -26 -14 -35 -13 -36 10 -24 11 6 46 10 78 8 49 -3 57 -6 57 -23 0 -29 -46 -46 -123 -47 -107 -1 -184 42 -223 127 -21 45 -25 138 -8 198 15 54 84 122 138 137 85 23 230 -11 282 -66 12 -13 27 -24 34 -24 19 0 46 40 73 113 15 39 33 72 39 74 15 5 56 -67 82 -144 29 -87 28 -253 -1 -253 -7 0 -8 21 -4 58 10 97 -2 103 -228 102 -110 -1 -182 2 -195 9 -31 17 -61 -17 -62 -71 -4 -129 0 -171 14 -185 12 -13 14 1 13 116 -1 99 2 131 12 131 6 0 12 -7 12 -15 0 -13 30 -15 210 -15 210 0 234 -4 196 -34 -20 -15 -27 -287 -8 -294 7 -2 12 2 12 10 0 7 16 47 37 88 34 70 36 82 41 192 3 93 1 127 -13 170 -61 183 -207 312 -400 353 -77 16 -88 16 -155 5z"/> <path d="M1803 802 c-5 -21 -10 -22 -135 -22 -74 0 -138 5 -150 11 -14 8 -23 8 -31 0 -7 -7 -5 -12 6 -17 15 -5 17 -25 17 -150 0 -126 -2 -144 -17 -153 -14 -7 -15 -13 -7 -21 8 -8 14 -9 18 -1 5 7 58 11 151 11 123 0 144 -2 149 -16 11 -29 19 -7 20 56 2 41 -2 60 -10 60 -7 0 -14 -4 -16 -9 -1 -5 -48 -11 -102 -13 l-100 -3 0 29 0 30 65 -3 c35 -1 66 -7 67 -12 10 -25 17 -3 17 50 0 54 -2 58 -16 45 -10 -9 -37 -14 -72 -14 -50 0 -57 2 -57 20 0 11 -1 23 -2 27 -2 4 42 6 97 4 55 -1 102 -7 103 -12 2 -5 9 -9 16 -9 8 0 12 19 10 60 -1 64 -11 89 -21 52z m-218 -69 c-17 -40 -16 -68 4 -89 l20 -22 -20 -18 c-21 -18 -22 -46 -4 -87 6 -16 4 -18 -16 -15 -24 3 -24 5 -26 118 -2 115 2 129 36 130 9 0 11 -6 6 -17z"/> <path d="M2171 813 c5 -33 -1 -34 -143 -31 -79 2 -151 7 -160 12 -13 6 -18 4 -18 -8 0 -9 5 -16 10 -16 6 0 10 -57 10 -151 0 -91 -4 -148 -9 -144 -6 3 -9 -4 -8 -15 1 -22 8 -25 23 -10 16 16 300 9 297 -7 -2 -7 2 -13 7 -13 6 0 10 28 10 65 0 36 -4 65 -9 65 -5 0 -11 -4 -13 -9 -1 -5 -48 -11 -102 -12 l-100 -3 0 29 0 29 60 -3 c32 -1 63 -7 69 -12 5 -5 12 -9 15 -9 10 0 6 108 -4 117 -5 4 -6 3 -2 -4 8 -15 -14 -21 -84 -25 -54 -2 -55 -2 -55 26 l1 29 99 -2 c55 -1 102 -6 103 -12 2 -5 8 -9 13 -9 5 0 9 29 9 65 0 37 -4 65 -10 65 -5 0 -9 -3 -9 -7z m-226 -94 c-15 -28 -15 -33 4 -64 12 -22 16 -37 10 -41 -23 -14 -30 -56 -14 -81 20 -29 11 -47 -16 -33 -17 10 -19 22 -19 115 0 117 4 135 31 135 19 0 19 -2 4 -31z"/> <path d="M2933 813 c4 -5 -4 -15 -16 -22 -26 -14 -270 -11 -299 3 -13 6 -18 4 -18 -8 0 -9 5 -16 10 -16 6 0 10 -55 10 -145 0 -84 -4 -145 -9 -145 -6 0 -9 -9 -8 -19 1 -15 5 -17 18 -10 10 5 81 9 158 9 123 0 141 -2 150 -17 9 -17 10 -17 17 0 4 10 2 23 -5 30 -14 14 -15 47 -1 47 6 0 10 9 10 20 0 20 -25 28 -32 11 -1 -5 -49 -11 -106 -13 l-103 -4 3 30 3 30 60 -3 c33 -1 66 -7 72 -13 15 -12 14 -14 15 52 1 53 -7 74 -18 46 -5 -12 -20 -16 -71 -16 -64 0 -64 0 -61 26 l3 27 100 -2 c55 -1 102 -6 103 -12 7 -17 32 -9 32 11 0 11 -4 20 -10 20 -5 0 -10 9 -10 20 0 11 5 20 10 20 14 0 13 37 -2 46 -6 4 -8 3 -5 -3z m-238 -90 c-17 -25 -12 -65 11 -84 12 -9 11 -15 -6 -36 -24 -31 -25 -46 -5 -77 13 -20 13 -24 2 -29 -31 -12 -37 9 -38 121 0 62 2 116 6 121 3 5 14 9 25 8 18 -1 18 -3 5 -24z"/> <path d="M1076 791 c-4 -5 1 -14 10 -19 13 -7 15 -30 12 -163 l-3 -154 36 3 c20 2 46 -1 57 -7 26 -14 44 7 18 21 -12 7 -16 23 -16 63 l0 55 32 -4 c25 -2 40 -14 71 -57 30 -42 35 -55 23 -57 -9 -2 -16 -7 -16 -12 0 -16 21 -22 35 -10 14 12 65 10 95 -4 11 -5 16 -1 16 14 0 11 -7 23 -16 26 -8 3 -30 25 -48 50 l-32 45 29 10 c16 6 37 21 45 34 22 34 20 97 -3 126 -18 23 -27 24 -163 29 -78 3 -150 9 -159 14 -10 4 -20 3 -23 -3z m97 -47 c3 -3 -1 -20 -8 -37 -12 -28 -11 -35 7 -59 20 -28 20 -28 -1 -71 -12 -24 -21 -49 -21 -56 0 -7 -5 -9 -10 -6 -14 8 -11 205 3 223 10 13 20 15 30 6z m220 -25 c19 -26 11 -56 -23 -94 -15 -16 -31 -38 -37 -47 -8 -16 -11 -17 -31 -2 -30 20 -28 31 7 39 52 11 85 71 54 96 -7 6 -13 15 -13 20 0 17 29 9 43 -12z m-52 -21 c21 -32 -1 -45 -83 -50 l-68 -4 0 37 0 36 71 -2 c46 -2 75 -8 80 -17z"/> <path d="M2360 787 c-3 -3 -20 -7 -37 -10 -69 -11 -123 -77 -123 -150 0 -121 81 -176 239 -162 75 6 137 12 150 14 3 1 -5 11 -17 24 -11 12 -28 39 -37 60 -15 36 -28 50 -22 25 3 -19 -63 -48 -108 -48 -50 0 -85 18 -104 51 -20 36 -1 81 42 101 53 24 180 7 162 -22 -3 -5 -1 -11 5 -15 5 -3 12 7 16 22 4 15 15 40 25 55 26 37 24 44 -13 45 -18 0 -64 4 -103 8 -38 4 -72 5 -75 2z m-60 -75 c0 -5 -9 -17 -20 -27 -41 -37 -14 -143 40 -160 11 -4 18 -11 15 -16 -9 -13 -62 17 -81 47 -26 39 -23 108 6 139 24 25 40 32 40 17z"/> <path d="M1618 395 c-3 -3 -2 -22 1 -43 6 -35 8 -37 49 -40 34 -3 42 0 42 14 0 13 -7 15 -31 12 -28 -4 -30 -3 -26 19 3 18 0 23 -15 23 -11 0 -16 5 -13 10 6 10 2 14 -7 5z"/> <path d="M2224 392 c4 -7 1 -12 -6 -12 -10 0 -13 -10 -10 -35 4 -32 7 -35 38 -35 24 0 34 5 34 15 0 9 -9 15 -25 15 -22 0 -25 3 -19 24 3 14 1 27 -7 31 -8 5 -10 4 -5 -3z"/> <path d="M2925 390 c-4 -6 -29 -9 -59 -7 -65 5 -96 -6 -96 -32 0 -24 26 -40 63 -38 34 2 29 22 -6 22 -14 1 -30 4 -34 9 -11 11 19 26 40 20 9 -3 17 -1 17 5 0 8 6 7 19 -1 15 -9 17 -17 10 -35 -7 -20 -6 -23 16 -23 22 0 24 4 19 24 -4 16 -1 25 11 30 9 3 13 2 10 -4 -3 -6 -1 -10 4 -10 13 0 15 37 2 45 -5 3 -13 1 -16 -5z"/> <path d="M1086 371 c-9 -10 -16 -23 -16 -29 0 -18 39 -34 66 -28 34 9 30 26 -6 26 -16 0 -30 4 -30 9 0 13 27 21 45 15 8 -4 15 -1 15 5 0 6 -6 11 -12 12 -7 0 -21 2 -30 4 -9 2 -24 -5 -32 -14z"/> <path d="M1179 348 c3 -36 5 -38 37 -38 22 0 34 5 34 14 0 9 -8 12 -26 8 -19 -3 -25 -1 -20 7 4 6 12 9 17 6 5 -4 9 -2 9 4 0 5 -8 12 -17 14 -11 3 -7 5 10 6 41 2 32 16 -11 16 -37 0 -37 0 -33 -37z"/> <path d="M1280 381 c-21 -9 -19 -63 3 -67 14 -2 15 1 7 17 -8 13 -7 19 1 19 6 0 13 -9 16 -20 9 -35 33 -24 33 15 0 36 -15 48 -23 18 -3 -16 -5 -15 -13 3 -6 13 -14 19 -24 15z"/> <path d="M1473 382 c-30 -3 -33 -6 -33 -38 0 -25 4 -34 16 -34 10 0 14 6 10 15 -3 8 -1 15 5 15 5 0 12 -7 15 -15 4 -8 11 -15 16 -15 6 0 7 7 4 16 -3 8 -1 24 4 34 12 23 5 27 -37 22z"/> <path d="M1564 379 c-12 -4 -24 -20 -28 -34 -8 -32 1 -46 14 -25 8 13 13 13 31 2 28 -18 30 -13 16 29 -11 31 -16 35 -33 28z"/> <path d="M1743 369 c-1 -14 5 -19 23 -19 13 0 24 -5 24 -10 0 -6 -12 -9 -26 -8 -15 2 -29 -2 -31 -7 -2 -6 14 -11 37 -11 33 -1 40 3 40 18 0 10 -10 23 -22 28 -22 8 -21 9 6 9 39 1 25 14 -17 16 -26 2 -33 -1 -34 -16z"/> <path d="M1853 379 c-47 -17 -11 -79 38 -64 26 8 14 25 -17 25 -16 0 -24 5 -21 13 2 6 13 12 25 12 25 0 35 17 12 20 -8 1 -25 -1 -37 -6z"/> <path d="M1986 375 c-17 -17 -36 -20 -36 -5 0 6 -7 10 -16 10 -11 0 -14 -8 -12 -32 3 -32 28 -53 28 -24 0 9 7 16 15 16 8 0 15 -7 15 -15 0 -8 6 -15 13 -15 8 0 12 14 12 40 0 22 0 40 -2 40 -1 0 -8 -7 -17 -15z"/> <path d="M2030 376 c-17 -21 -9 -59 14 -62 52 -7 78 48 30 66 -32 12 -29 13 -44 -4z m42 -38 c-9 -9 -15 -9 -24 0 -10 10 -10 15 2 22 20 12 38 -6 22 -22z"/> <path d="M2120 375 c-17 -21 -8 -58 14 -61 31 -4 58 15 54 39 -4 26 -52 41 -68 22z m42 -37 c-9 -9 -15 -9 -24 0 -10 10 -10 15 2 22 20 12 38 -6 22 -22z"/> <path d="M2323 348 c0 -35 2 -38 26 -38 36 0 64 22 59 46 -2 14 -14 20 -44 24 l-41 6 0 -38z m62 1 c0 -7 -8 -15 -17 -17 -18 -3 -25 18 -11 32 10 10 28 1 28 -15z"/> <path d="M2488 382 c-24 -5 -23 -32 1 -32 11 0 23 -5 27 -11 5 -8 -1 -10 -20 -7 -29 6 -36 -8 -8 -16 14 -4 36 -3 60 3 1 1 -2 10 -8 21 -6 11 -21 21 -33 21 -17 1 -15 3 8 8 42 10 66 -6 54 -36 -7 -20 -5 -23 15 -23 19 0 23 4 19 20 -3 11 0 27 7 35 11 13 7 15 -21 16 -19 1 -45 2 -59 3 -14 1 -33 0 -42 -2z"/> <path d="M2725 348 c0 -48 21 -51 27 -4 3 25 0 36 -12 39 -11 3 -15 -5 -15 -35z"/> <path d="M1363 366 c9 -7 17 -23 17 -34 0 -14 6 -20 19 -19 16 1 18 5 9 20 -7 14 -5 22 9 33 16 12 13 13 -27 13 -40 0 -43 -1 -27 -13z"/> <path d="M2430 345 c0 -19 5 -35 10 -35 6 0 10 16 10 35 0 19 -4 35 -10 35 -5 0 -10 -16 -10 -35z"/> <path d="M2636 366 c3 -8 1 -23 -4 -33 -9 -15 -7 -19 9 -20 12 -1 19 5 19 15 1 16 2 16 14 0 20 -27 32 -21 33 17 1 34 0 35 -38 35 -29 0 -37 -3 -33 -14z"/> <path d="M1060 240 c0 -20 8 -20 945 -20 937 0 945 0 945 20 0 20 -8 20 -945 20 -937 0 -945 0 -945 -20z"/> <path d="M302 158 c-15 -15 -15 -61 0 -76 17 -17 65 -15 72 4 17 45 -1 84 -39 84 -12 0 -26 -5 -33 -12z m52 -26 c9 -14 -12 -35 -28 -29 -23 9 -20 37 3 37 11 0 22 -4 25 -8z"/> <path d="M395 120 c0 -36 4 -50 14 -50 10 0 12 9 8 35 -3 19 -5 35 -3 35 1 0 15 -14 32 -32 16 -17 23 -28 17 -24 -7 4 -13 2 -13 -3 0 -6 8 -11 18 -11 14 0 17 8 17 45 -1 48 -7 61 -25 50 -8 -5 -8 -10 0 -20 6 -7 7 -15 3 -18 -9 -6 -29 14 -29 28 1 6 -8 11 -19 13 -18 2 -20 -3 -20 -48z"/> <path d="M505 120 l0 -50 43 0 c36 0 42 3 42 21 0 15 -4 19 -15 15 -8 -3 -22 -9 -30 -12 -10 -4 -15 0 -15 11 0 12 6 16 18 13 20 -6 47 26 37 42 -4 6 -23 10 -43 10 l-37 0 0 -50z"/> <path d="M634 148 c4 -13 9 -35 12 -50 5 -22 12 -28 31 -28 22 0 25 4 21 25 -3 14 -1 25 4 25 5 0 6 5 3 10 -3 6 -1 10 5 10 6 0 8 5 4 12 -5 7 -3 8 5 3 8 -4 11 -22 9 -46 -3 -32 0 -39 14 -39 9 0 20 5 23 10 3 6 11 10 16 10 6 0 7 -5 4 -10 -4 -6 7 -10 25 -10 18 0 29 4 25 10 -3 6 -1 10 4 10 6 0 11 9 11 20 0 15 -7 20 -27 20 -28 0 -26 10 3 14 10 2 20 8 22 14 5 16 -65 16 -70 0 -9 -23 3 -38 29 -38 15 0 23 -5 21 -12 -3 -7 -21 -13 -42 -13 l-38 0 5 38 5 37 -39 0 c-37 0 -39 -2 -40 -32 l-1 -33 -10 33 c-12 37 -44 46 -34 10z"/> <path d="M869 168 c-1 -1 -3 -24 -4 -50 -2 -40 0 -48 15 -48 14 0 17 8 15 47 -1 26 -7 49 -13 51 -7 2 -13 2 -13 0z"/> <path d="M923 163 c-16 -6 -17 -65 -1 -81 16 -16 55 -15 65 1 11 17 11 60 0 75 -9 12 -41 15 -64 5z m50 -43 c4 -16 0 -20 -18 -20 -22 0 -40 22 -28 34 14 13 41 5 46 -14z"/> <path d="M1015 120 c0 -34 4 -50 13 -50 9 0 11 10 6 38 l-7 37 22 -19 c11 -11 21 -27 21 -38 0 -11 7 -18 21 -18 18 0 20 5 17 48 -2 34 -7 47 -18 47 -10 0 -14 -8 -13 -25 l3 -25 -17 28 c-29 44 -48 35 -48 -23z"/> <path d="M1212 158 c-16 -16 -15 -56 2 -74 41 -41 104 10 76 61 -15 27 -57 34 -78 13z m61 -44 c-2 -5 -13 -9 -25 -9 -21 0 -31 18 -20 38 5 10 48 -18 45 -29z"/> <path d="M1305 120 c0 -39 3 -50 15 -50 12 0 15 8 12 38 l-4 37 23 -30 c13 -16 23 -33 22 -37 -2 -5 4 -8 12 -8 11 0 15 12 15 50 0 37 -4 50 -14 50 -10 0 -13 -8 -10 -25 3 -18 1 -23 -10 -19 -8 3 -16 14 -19 25 -3 10 -13 19 -24 19 -15 0 -18 -8 -18 -50z"/> <path d="M1415 120 l0 -50 43 0 c36 0 42 3 42 21 0 15 -4 19 -15 15 -8 -3 -22 -9 -30 -12 -10 -4 -15 0 -15 11 0 12 6 16 18 13 18 -5 42 19 42 42 0 5 -19 10 -42 10 l-43 0 0 -50z"/> <path d="M1544 150 c0 -15 5 -19 20 -14 16 5 18 3 11 -12 -14 -35 -10 -49 13 -52 22 -3 23 -1 16 34 -5 30 -4 36 7 32 10 -4 15 1 15 13 0 16 -8 19 -41 19 -34 0 -41 -3 -41 -20z"/> <path d="M1640 120 l0 -50 55 0 c37 0 54 4 53 12 -4 17 32 22 46 7 8 -9 8 -10 -1 -5 -7 4 -13 2 -13 -3 0 -6 15 -11 33 -11 32 0 33 2 30 33 l-4 32 18 -23 c19 -23 33 -21 33 5 0 8 -4 12 -9 9 -9 -6 -26 22 -23 37 1 4 -8 7 -19 7 -19 0 -21 -4 -16 -36 8 -45 -14 -42 -27 4 -6 22 -15 32 -29 32 -11 0 -17 -3 -14 -6 4 -4 -2 -19 -12 -33 -10 -14 -16 -32 -14 -38 3 -7 -1 -13 -8 -13 -8 0 -10 13 -6 45 l7 45 -40 0 -40 0 0 -50z m62 5 c-6 -22 -22 -36 -34 -29 -14 9 -8 24 10 25 16 1 16 2 0 6 -26 6 -22 18 5 18 19 0 23 -4 19 -20z"/> <path d="M1895 160 c3 -5 1 -10 -6 -10 -8 0 -8 -4 1 -15 7 -8 10 -25 6 -40 -5 -20 -3 -25 14 -25 17 0 20 7 20 50 0 44 -3 50 -21 50 -11 0 -17 -4 -14 -10z"/> <path d="M2032 158 c-7 -7 -12 -24 -12 -38 0 -33 17 -50 50 -50 36 0 58 39 42 75 -13 27 -58 35 -80 13z m65 -42 c-6 -17 -52 -13 -53 4 0 8 1 18 3 22 6 11 54 -14 50 -26z"/> <path d="M2120 159 c0 -5 4 -8 9 -5 4 3 5 -13 0 -37 -8 -47 -6 -52 14 -44 10 4 13 15 10 31 -3 14 0 32 6 39 6 8 8 17 4 20 -10 11 -43 8 -43 -4z"/> <path d="M2198 144 c4 -24 3 -25 -17 -15 -26 15 -27 0 -1 -24 11 -10 17 -22 14 -26 -3 -5 2 -9 10 -9 12 0 16 11 16 50 0 36 -4 50 -14 50 -9 0 -12 -8 -8 -26z"/> <path d="M2236 138 c3 -18 8 -39 10 -46 2 -7 -1 -10 -6 -7 -6 3 -10 1 -10 -4 0 -6 20 -11 45 -11 38 0 45 3 45 19 0 11 -6 22 -12 25 -10 5 -10 7 0 12 6 3 12 14 12 25 0 16 -7 19 -45 19 l-44 0 5 -32z"/> <path d="M2377 152 c-10 -10 -17 -23 -17 -29 0 -21 38 -53 64 -53 22 0 26 4 26 30 0 20 -5 30 -15 30 -9 0 -15 -6 -13 -14 2 -8 0 -15 -4 -15 -23 -2 -28 1 -28 19 0 16 7 20 35 20 36 0 47 13 19 24 -28 11 -50 6 -67 -12z"/> <path d="M2475 120 c0 -39 3 -50 16 -50 12 0 15 7 11 26 -4 20 -1 25 9 22 8 -3 13 -15 11 -26 -2 -16 2 -22 15 -22 14 0 18 8 18 38 -1 50 -10 62 -48 62 -32 0 -32 0 -32 -50z"/> <path d="M2575 120 l0 -50 88 0 c74 0 87 2 87 17 0 15 1 15 18 0 23 -21 56 -22 72 -2 10 12 10 19 2 27 -9 9 -12 9 -12 -1 0 -15 -52 -11 -57 5 -2 6 8 16 22 22 18 8 24 9 19 1 -4 -7 1 -10 12 -7 10 2 20 11 22 21 3 13 -4 17 -32 17 -34 0 -66 -21 -66 -42 0 -13 -30 -37 -47 -38 -7 0 -13 7 -13 16 0 11 6 15 20 11 15 -4 20 0 20 15 0 12 4 16 11 12 7 -4 10 -1 7 7 -3 10 -27 15 -89 16 l-84 3 0 -50z m85 28 c0 6 3 12 8 12 4 0 7 -18 7 -40 0 -22 -2 -40 -4 -40 -11 0 -30 38 -31 60 0 20 2 22 10 10 6 -10 10 -11 10 -2z"/> <path d="M2860 120 l0 -50 45 0 c39 0 45 3 45 21 0 16 -4 19 -17 14 -30 -12 -46 -11 -51 4 -3 10 2 13 20 9 17 -3 29 1 37 14 19 31 13 38 -34 38 l-45 0 0 -50z"/> </g> </svg> 