<svg width="25" height="24" viewBox="0 0 25 24" fill="none" xmlns="http://www.w3.org/2000/svg">
<path d="M9.5 22H15.5C20.5 22 22.5 20 22.5 15V9C22.5 4 20.5 2 15.5 2H9.5C4.5 2 2.5 4 2.5 9V15C2.5 20 4.5 22 9.5 22Z" stroke="url(#paint0_linear_1_42)" stroke-width="1.5" stroke-linecap="round" stroke-linejoin="round"/>
<path d="M7.83 14.49L10.21 11.4C10.55 10.96 11.18 10.88 11.62 11.22L13.45 12.66C13.89 13 14.52 12.92 14.86 12.49L17.17 9.51" stroke="url(#paint1_linear_1_42)" stroke-width="1.5" stroke-linecap="round" stroke-linejoin="round"/>
<defs>
<linearGradient id="paint0_linear_1_42" x1="12.5" y1="2" x2="12.5" y2="22" gradientUnits="userSpaceOnUse">
<stop stop-color="#00AADF"/>
<stop offset="1" stop-color="#223F81"/>
</linearGradient>
<linearGradient id="paint1_linear_1_42" x1="12.5" y1="9.51" x2="12.5" y2="14.49" gradientUnits="userSpaceOnUse">
<stop stop-color="#00AADF"/>
<stop offset="1" stop-color="#223F81"/>
</linearGradient>
</defs>
</svg>
