<svg width="24" height="24" viewBox="0 0 24 24" fill="none" xmlns="http://www.w3.org/2000/svg">
<g clip-path="url(#clip0_3_109)">
<rect width="24" height="24" fill="black" fill-opacity="0.03"/>
<path d="M5.33185 16V7.27273H10.7438V8.40625H6.64862V11.0653H10.356V12.1946H6.64862V16H5.33185ZM19.9441 11.6364C19.9441 12.5682 19.7736 13.3693 19.4327 14.0398C19.0918 14.7074 18.6245 15.2216 18.0307 15.5824C17.4398 15.9403 16.7679 16.1193 16.0151 16.1193C15.2594 16.1193 14.5847 15.9403 13.9909 15.5824C13.4 15.2216 12.9341 14.706 12.5932 14.0355C12.2523 13.3651 12.0819 12.5653 12.0819 11.6364C12.0819 10.7045 12.2523 9.90483 12.5932 9.23722C12.9341 8.56676 13.4 8.05256 13.9909 7.6946C14.5847 7.33381 15.2594 7.15341 16.0151 7.15341C16.7679 7.15341 17.4398 7.33381 18.0307 7.6946C18.6245 8.05256 19.0918 8.56676 19.4327 9.23722C19.7736 9.90483 19.9441 10.7045 19.9441 11.6364ZM18.6401 11.6364C18.6401 10.9261 18.525 10.3281 18.2949 9.84233C18.0676 9.35369 17.7551 8.98438 17.3574 8.73438C16.9625 8.48153 16.5151 8.35511 16.0151 8.35511C15.5123 8.35511 15.0634 8.48153 14.6685 8.73438C14.2736 8.98438 13.9611 9.35369 13.731 9.84233C13.5037 10.3281 13.3901 10.9261 13.3901 11.6364C13.3901 12.3466 13.5037 12.946 13.731 13.4347C13.9611 13.9205 14.2736 14.2898 14.6685 14.5426C15.0634 14.7926 15.5123 14.9176 16.0151 14.9176C16.5151 14.9176 16.9625 14.7926 17.3574 14.5426C17.7551 14.2898 18.0676 13.9205 18.2949 13.4347C18.525 12.946 18.6401 12.3466 18.6401 11.6364Z" fill="url(#paint0_linear_3_109)"/>
</g>
<defs>
<linearGradient id="paint0_linear_3_109" x1="12.5" y1="3" x2="12.5" y2="21" gradientUnits="userSpaceOnUse">
<stop stop-color="#00AADF"/>
<stop offset="1" stop-color="#223F81"/>
</linearGradient>
<clipPath id="clip0_3_109">
<path d="M0 2C0 0.89543 0.895431 0 2 0H22C23.1046 0 24 0.895431 24 2V22C24 23.1046 23.1046 24 22 24H2C0.89543 24 0 23.1046 0 22V2Z" fill="white"/>
</clipPath>
</defs>
</svg>
