<svg width="25" height="24" viewBox="0 0 25 24" fill="none" xmlns="http://www.w3.org/2000/svg">
<g clip-path="url(#clip0_2415_5881)">
<rect width="24" height="24" transform="translate(0.5)" fill="black" fill-opacity="0.03"/>
<path d="M5.83185 16V7.27273H11.2438V8.40625H7.14862V11.0653H10.856V12.1946H7.14862V16H5.83185ZM20.4441 11.6364C20.4441 12.5682 20.2736 13.3693 19.9327 14.0398C19.5918 14.7074 19.1245 15.2216 18.5307 15.5824C17.9398 15.9403 17.2679 16.1193 16.5151 16.1193C15.7594 16.1193 15.0847 15.9403 14.4909 15.5824C13.9 15.2216 13.4341 14.706 13.0932 14.0355C12.7523 13.3651 12.5819 12.5653 12.5819 11.6364C12.5819 10.7045 12.7523 9.90483 13.0932 9.23722C13.4341 8.56676 13.9 8.05256 14.4909 7.6946C15.0847 7.33381 15.7594 7.15341 16.5151 7.15341C17.2679 7.15341 17.9398 7.33381 18.5307 7.6946C19.1245 8.05256 19.5918 8.56676 19.9327 9.23722C20.2736 9.90483 20.4441 10.7045 20.4441 11.6364ZM19.1401 11.6364C19.1401 10.9261 19.025 10.3281 18.7949 9.84233C18.5676 9.35369 18.2551 8.98438 17.8574 8.73438C17.4625 8.48153 17.0151 8.35511 16.5151 8.35511C16.0123 8.35511 15.5634 8.48153 15.1685 8.73438C14.7736 8.98438 14.4611 9.35369 14.231 9.84233C14.0037 10.3281 13.8901 10.9261 13.8901 11.6364C13.8901 12.3466 14.0037 12.946 14.231 13.4347C14.4611 13.9205 14.7736 14.2898 15.1685 14.5426C15.5634 14.7926 16.0123 14.9176 16.5151 14.9176C17.0151 14.9176 17.4625 14.7926 17.8574 14.5426C18.2551 14.2898 18.5676 13.9205 18.7949 13.4347C19.025 12.946 19.1401 12.3466 19.1401 11.6364Z" fill="#9CA1AB"/>
</g>
<defs>
<clipPath id="clip0_2415_5881">
<path d="M0.5 2C0.5 0.89543 1.39543 0 2.5 0H22.5C23.6046 0 24.5 0.895431 24.5 2V22C24.5 23.1046 23.6046 24 22.5 24H2.5C1.39543 24 0.5 23.1046 0.5 22V2Z" fill="white"/>
</clipPath>
</defs>
</svg>
