<svg width="43" height="60" viewBox="0 0 43 60" fill="none" xmlns="http://www.w3.org/2000/svg">
<g clip-path="url(#clip0_2415_3609)">
<path fill-rule="evenodd" clip-rule="evenodd" d="M10.7313 30.4619C9.98359 30.4619 8.37305 33.0673 8.37305 33.0673C8.37305 33.0808 11.9105 35.3877 12.1981 35.5912C13.7943 36.6768 15.3329 37.8302 16.7996 39.0786C18.7697 40.7476 20.826 42.5795 21.9764 44.8728C22.3071 45.5513 22.566 46.2704 22.6666 47.0168C22.6379 46.7589 22.7242 46.4061 22.7385 46.1483C22.7673 45.4156 22.7817 44.6828 22.7242 43.95C22.6379 42.6202 22.2784 41.2768 21.545 40.1099C21.1424 39.445 20.6103 38.8343 20.0639 38.278C18.554 36.731 16.9003 35.2927 15.2322 33.9086C14.3551 33.1623 13.4635 32.4431 12.5432 31.7239C12.0255 31.3168 11.4647 30.7604 10.832 30.4891C10.8032 30.4755 10.7745 30.4619 10.7313 30.4619Z" fill="url(#paint0_linear_2415_3609)"/>
<path fill-rule="evenodd" clip-rule="evenodd" d="M20.2864 13.4219C20.2582 14.1531 20.2441 14.8844 20.3006 15.6156C20.3853 16.9561 20.7525 18.2831 21.4588 19.4477C21.8543 20.1112 22.3769 20.7205 22.9136 21.2892C24.3967 22.8194 26.021 24.2547 27.6595 25.6494C28.5211 26.3807 29.4109 27.1119 30.3008 27.816C30.8092 28.2222 31.3742 28.7774 31.9816 29.0618C32.6454 29.3597 34.3969 26.4754 34.3969 26.4754C34.3969 26.4754 30.9222 24.1599 30.6398 23.9704C29.0719 22.8735 27.5606 21.7226 26.1199 20.4768C24.1848 18.8112 22.165 16.9832 21.0492 14.6948C20.7102 14.0177 20.4701 13.3136 20.3571 12.5688C20.3853 12.8261 20.3006 13.1647 20.2864 13.4219Z" fill="url(#paint1_linear_2415_3609)"/>
<path fill-rule="evenodd" clip-rule="evenodd" d="M6.90942 35.672C6.86628 37.2189 6.8519 38.7794 6.75124 40.3128C6.7081 40.9098 6.29108 41.629 6.65058 42.1175C6.86628 42.4161 7.16825 42.5517 7.44147 42.796C7.71469 43.0538 7.93039 43.3659 8.23236 43.6102C8.72128 44.0173 9.29647 44.3565 9.84291 44.6957C11.6116 45.7949 13.3516 46.9483 14.9765 48.2238C16.7596 49.6215 18.629 51.1956 19.2186 53.3802C19.7794 55.47 19.1179 57.519 18.4708 59.5001C19.6356 57.4918 20.8723 55.6328 21.6056 53.421C22.1665 51.7248 21.9939 49.5808 21.4187 47.9117C20.9586 46.5548 20.2108 45.3064 19.233 44.2208C18.9885 43.9358 18.7297 43.6645 18.4421 43.4066C16.2851 41.3712 13.6967 39.6207 11.2953 37.8295C9.84291 36.744 8.3474 35.7127 6.93818 34.5864C7.05322 34.6814 6.90942 35.5499 6.90942 35.672Z" fill="url(#paint2_linear_2415_3609)"/>
<path fill-rule="evenodd" clip-rule="evenodd" d="M14.1119 12.2377C13.0909 12.3327 12.3287 13.174 11.7392 13.8796C11.3797 14.3003 11.0489 14.7345 10.7038 15.1687C8.96386 17.3806 6.89316 19.321 5.19633 21.56C4.7218 22.1842 4.26164 22.8219 3.83025 23.4733C0.968651 27.7613 0.465356 34.3561 3.31257 38.7526C3.9309 39.7025 4.66428 40.6388 5.52707 41.4122C6.34672 42.1586 7.41083 42.6471 8.08669 43.5291C6.90754 41.3172 7.10886 38.7526 8.00041 36.4729C8.87758 34.2611 10.2724 32.2256 11.9693 30.4752C13.6086 28.779 15.7655 27.5034 17.2323 25.6851C18.2389 24.4367 19.0585 22.8762 19.3605 21.3429C19.6912 19.6602 19.4612 17.964 18.8428 16.3764C18.469 15.4401 17.9369 14.5717 17.2035 13.8525C16.4989 13.1469 15.406 12.2241 14.2988 12.2241C14.2413 12.2241 14.1838 12.2377 14.1119 12.2377Z" fill="url(#paint3_linear_2415_3609)"/>
<path fill-rule="evenodd" clip-rule="evenodd" d="M21.6016 6.57916C21.0408 8.28892 21.2133 10.4193 21.7885 12.0884C22.2487 13.4454 23.0108 14.6937 23.9743 15.7929C24.2187 16.0643 24.4776 16.3357 24.7652 16.6071C26.9221 18.6289 29.5105 20.3794 31.912 22.1706C33.3643 23.2561 34.8598 24.2874 36.2691 25.4137C36.154 25.3323 36.2978 24.4638 36.2978 24.3281C36.341 22.7812 36.3553 21.2207 36.456 19.6873C36.4991 19.0903 36.9162 18.3711 36.5567 17.8826C36.341 17.5841 36.039 17.4484 35.7658 17.2041C35.4925 16.9463 35.2768 16.6478 34.9749 16.3899C34.486 15.9829 33.9108 15.6572 33.3643 15.3044C31.5956 14.2052 29.8556 13.0518 28.2307 11.7763C26.4476 10.3922 24.5782 8.81813 23.9886 6.61987C23.4278 4.53016 24.0893 2.48115 24.7364 0.5C23.5716 2.50829 22.335 4.36732 21.6016 6.57916Z" fill="url(#paint4_linear_2415_3609)"/>
<path fill-rule="evenodd" clip-rule="evenodd" d="M35.2069 23.5278C34.3298 25.7533 32.9349 27.7887 31.2381 29.5256C29.5988 31.2218 27.4418 32.4973 25.9751 34.3156C24.9685 35.564 24.1488 37.1245 23.8468 38.6715C23.5161 40.3405 23.7462 42.0367 24.3645 43.6244C24.7384 44.5607 25.2705 45.4291 26.0038 46.1619C26.7516 46.8946 27.9307 47.8716 29.0955 47.7631C30.1165 47.6681 30.8786 46.8268 31.4682 46.1211C31.8277 45.7005 32.1584 45.2663 32.5035 44.832C34.2435 42.6338 36.3142 40.6798 38.0254 38.4408C38.4855 37.8166 38.9457 37.1788 39.3771 36.541C42.2387 32.2395 42.7564 25.6583 39.8948 21.2617C39.2764 20.2983 38.5574 19.362 37.6947 18.5885C36.8606 17.8422 35.7965 17.3537 35.1207 16.4717C36.2998 18.6835 36.0985 21.2482 35.2069 23.5278Z" fill="url(#paint5_linear_2415_3609)"/>
</g>
<defs>
<linearGradient id="paint0_linear_2415_3609" x1="10.2569" y1="31.8324" x2="22.4109" y2="45.4278" gradientUnits="userSpaceOnUse">
<stop stop-color="#3D3777"/>
<stop offset="1" stop-color="#E32A88"/>
</linearGradient>
<linearGradient id="paint1_linear_2415_3609" x1="31.2322" y1="25.8671" x2="26.8822" y2="16.3444" gradientUnits="userSpaceOnUse">
<stop stop-color="#12378A"/>
<stop offset="0.994792" stop-color="#0477FF"/>
</linearGradient>
<linearGradient id="paint2_linear_2415_3609" x1="9.96356" y1="39.4439" x2="17.7986" y2="51.8648" gradientUnits="userSpaceOnUse">
<stop stop-color="#3D3777"/>
<stop offset="1" stop-color="#E32A88"/>
</linearGradient>
<linearGradient id="paint3_linear_2415_3609" x1="6.80055" y1="33.1655" x2="15.1721" y2="18.3396" gradientUnits="userSpaceOnUse">
<stop stop-color="#E32A88"/>
<stop offset="1" stop-color="#3D3777"/>
</linearGradient>
<linearGradient id="paint4_linear_2415_3609" x1="33.2441" y1="20.5616" x2="25.409" y2="8.14016" gradientUnits="userSpaceOnUse">
<stop stop-color="#12378A"/>
<stop offset="0.994792" stop-color="#0477FF"/>
</linearGradient>
<linearGradient id="paint5_linear_2415_3609" x1="36.4074" y1="26.8068" x2="28.0344" y2="41.5879" gradientUnits="userSpaceOnUse">
<stop stop-color="#00AADF"/>
<stop offset="1" stop-color="#223F81"/>
</linearGradient>
<clipPath id="clip0_2415_3609">
<rect width="43" height="59" fill="white" transform="translate(0 0.5)"/>
</clipPath>
</defs>
</svg>
