<svg width="160" height="60" viewBox="0 0 160 60" fill="none" xmlns="http://www.w3.org/2000/svg">
<g clip-path="url(#clip0_2246_6954)">
<path d="M68.7509 44.4255C68.9838 44.699 69.1002 45.0213 69.1002 45.3924C69.1002 45.8221 68.9202 46.1737 68.5603 46.4472C68.2215 46.7206 67.8298 46.8573 67.3852 46.8573C66.9617 46.8573 66.5912 46.6816 66.2736 46.33L58.556 37.1594L54.9989 40.2651V45.3631C54.9989 45.7733 54.8507 46.1151 54.5543 46.3886C54.2579 46.662 53.8768 46.7987 53.411 46.7987C52.9452 46.7987 52.564 46.662 52.2676 46.3886C51.9924 46.1151 51.8547 45.7733 51.8547 45.3631V27.6959C51.8547 27.3053 52.0029 26.9732 52.2994 26.6998C52.5958 26.4263 52.9769 26.2896 53.4427 26.2896C53.9085 26.2896 54.2791 26.4263 54.5543 26.6998C54.8507 26.9537 54.9989 27.2857 54.9989 27.6959V36.8078L66.2736 26.7291C66.6759 26.397 67.0782 26.231 67.4805 26.231C67.8616 26.231 68.1898 26.3775 68.465 26.6705C68.7403 26.9634 68.8779 27.276 68.8779 27.608C68.8779 27.901 68.7297 28.2038 68.4333 28.5163L60.9062 35.0792L68.7509 44.4255Z" fill="#E32A88"/>
<path d="M77.3604 26.2896C77.7839 26.3091 78.1227 26.4556 78.3768 26.7291C78.652 26.983 78.7896 27.3053 78.7896 27.6959V45.3924C78.7896 45.7831 78.6308 46.1151 78.3132 46.3886C77.9956 46.662 77.6039 46.7987 77.1381 46.7987C76.6723 46.7987 76.2912 46.662 75.9948 46.3886C75.6984 46.1151 75.5501 45.7831 75.5501 45.3924V30.157L72.7553 31.7099C72.5224 31.8466 72.2577 31.9149 71.9613 31.9149C71.5378 31.9149 71.1779 31.7685 70.8815 31.4755C70.5851 31.1629 70.4368 30.8309 70.4368 30.4793C70.4368 30.2449 70.511 30.0203 70.6592 29.8054C70.8074 29.5906 70.9979 29.4148 71.2308 29.278L76.2489 26.4947C76.5453 26.3579 76.9158 26.2896 77.3604 26.2896Z" fill="#E32A88"/>
<path d="M96.276 44.2204C96.6783 44.2204 97.0171 44.3474 97.2923 44.6013C97.5676 44.8553 97.7052 45.1678 97.7052 45.5389C97.7052 45.91 97.5676 46.2128 97.2923 46.4472C97.0171 46.6815 96.6783 46.7987 96.276 46.7987H85.0014C84.5779 46.7987 84.2285 46.6815 83.9533 46.4472C83.678 46.1932 83.5404 45.8612 83.5404 45.451C83.5404 45.0994 83.6886 44.7674 83.9851 44.4548L91.0675 37.3645C93.0365 35.4308 94.0211 33.7217 94.0211 32.2372C94.0211 31.1825 93.64 30.3133 92.8778 29.6296C92.1367 28.9265 91.1839 28.5749 90.0194 28.5749C89.236 28.5749 88.4843 28.78 87.7645 29.1902C87.0446 29.6003 86.4623 30.1863 86.0177 30.9481C85.6789 31.3583 85.2766 31.5634 84.8108 31.5634C84.4509 31.5634 84.1121 31.4364 83.7945 31.1825C83.4769 30.9286 83.3181 30.6356 83.3181 30.3035C83.3181 30.0887 83.3922 29.864 83.5404 29.6296C83.7098 29.3952 83.9427 29.1218 84.2391 28.8093C84.9379 27.9498 85.8271 27.2662 86.9069 26.7584C87.9868 26.2505 89.0772 25.9966 90.1782 25.9966C91.5968 25.9966 92.8248 26.2603 93.8623 26.7877C94.8998 27.315 95.6938 28.0377 96.2443 28.9558C96.816 29.8738 97.1018 30.9286 97.1018 32.12C97.1018 34.3663 95.7891 36.7883 93.1636 39.3861L88.3679 44.2204H96.276Z" fill="#E32A88"/>
<path d="M53.6918 18.8673C53.6918 19.0853 53.6077 19.2705 53.4396 19.4231C53.2835 19.5756 53.0794 19.6519 52.8273 19.6519C52.5871 19.6519 52.383 19.5756 52.2149 19.4231C52.0589 19.2705 51.9808 19.0853 51.9808 18.8673V11.7895C51.9808 11.5716 52.0589 11.3863 52.2149 11.2337C52.383 11.0812 52.5871 11.0049 52.8273 11.0049C53.0794 11.0049 53.2835 11.0812 53.4396 11.2337C53.6077 11.3863 53.6918 11.5716 53.6918 11.7895V18.8673ZM52.8273 9.92606C52.4791 9.92606 52.2269 9.87157 52.0709 9.7626C51.9268 9.64273 51.8547 9.45747 51.8547 9.20683V8.9453C51.8547 8.68376 51.9328 8.49851 52.0889 8.38953C52.257 8.28056 52.5091 8.22607 52.8453 8.22607C53.1815 8.22607 53.4216 8.28601 53.5657 8.40588C53.7218 8.51485 53.7998 8.69466 53.7998 8.9453V9.20683C53.7998 9.46837 53.7218 9.65363 53.5657 9.7626C53.4096 9.87157 53.1635 9.92606 52.8273 9.92606Z" fill="#3D4B5C"/>
<path d="M60.5997 10.8905C62.7609 10.8905 63.8415 12.0674 63.8415 14.4212V18.8673C63.8415 19.0853 63.7575 19.2705 63.5894 19.4231C63.4333 19.5756 63.2292 19.6519 62.9771 19.6519C62.7369 19.6519 62.5328 19.5756 62.3647 19.4231C62.2086 19.2705 62.1306 19.0853 62.1306 18.8673V14.4376C62.1306 13.7946 61.9685 13.2824 61.6443 12.901C61.3201 12.5196 60.7918 12.3289 60.0594 12.3289C59.5792 12.3289 59.1409 12.427 58.7447 12.6231C58.3605 12.8084 58.0543 13.0645 57.8262 13.3914C57.6101 13.7074 57.502 14.0561 57.502 14.4376V18.8673C57.502 19.0853 57.418 19.2705 57.2499 19.4231C57.0938 19.5756 56.8897 19.6519 56.6375 19.6519C56.3854 19.6519 56.1813 19.5811 56.0252 19.4394C55.8691 19.2869 55.7911 19.0962 55.7911 18.8673V11.8712C55.7911 11.6533 55.8691 11.468 56.0252 11.3155C56.1933 11.1629 56.3974 11.0866 56.6375 11.0866C56.8897 11.0866 57.0938 11.1629 57.2499 11.3155C57.418 11.468 57.502 11.6533 57.502 11.8712V12.4433C57.8142 12.0074 58.2464 11.6424 58.7987 11.3482C59.363 11.043 59.9634 10.8905 60.5997 10.8905Z" fill="#3D4B5C"/>
<path d="M70.8451 10.8905C73.0063 10.8905 74.0869 12.0674 74.0869 14.4212V18.8673C74.0869 19.0853 74.0028 19.2705 73.8347 19.4231C73.6786 19.5756 73.4745 19.6519 73.2224 19.6519C72.9823 19.6519 72.7781 19.5756 72.61 19.4231C72.454 19.2705 72.3759 19.0853 72.3759 18.8673V14.4376C72.3759 13.7946 72.2138 13.2824 71.8896 12.901C71.5655 12.5196 71.0372 12.3289 70.3048 12.3289C69.8245 12.3289 69.3862 12.427 68.99 12.6231C68.6058 12.8084 68.2996 13.0645 68.0715 13.3914C67.8554 13.7074 67.7473 14.0561 67.7473 14.4376V18.8673C67.7473 19.0853 67.6633 19.2705 67.4952 19.4231C67.3391 19.5756 67.135 19.6519 66.8829 19.6519C66.6307 19.6519 66.4266 19.5811 66.2705 19.4394C66.1144 19.2869 66.0364 19.0962 66.0364 18.8673V11.8712C66.0364 11.6533 66.1144 11.468 66.2705 11.3155C66.4386 11.1629 66.6427 11.0866 66.8829 11.0866C67.135 11.0866 67.3391 11.1629 67.4952 11.3155C67.6633 11.468 67.7473 11.6533 67.7473 11.8712V12.4433C68.0595 12.0074 68.4918 11.6424 69.0441 11.3482C69.6084 11.043 70.2087 10.8905 70.8451 10.8905Z" fill="#3D4B5C"/>
<path d="M77.9026 18.8673C77.9026 19.0853 77.8186 19.2705 77.6505 19.4231C77.4944 19.5756 77.2903 19.6519 77.0381 19.6519C76.798 19.6519 76.5939 19.5756 76.4258 19.4231C76.2697 19.2705 76.1917 19.0853 76.1917 18.8673V11.7895C76.1917 11.5716 76.2697 11.3863 76.4258 11.2337C76.5939 11.0812 76.798 11.0049 77.0381 11.0049C77.2903 11.0049 77.4944 11.0812 77.6505 11.2337C77.8186 11.3863 77.9026 11.5716 77.9026 11.7895V18.8673ZM77.0381 9.92606C76.6899 9.92606 76.4378 9.87157 76.2817 9.7626C76.1376 9.64273 76.0656 9.45747 76.0656 9.20683V8.9453C76.0656 8.68376 76.1436 8.49851 76.2997 8.38953C76.4678 8.28056 76.72 8.22607 77.0561 8.22607C77.3923 8.22607 77.6325 8.28601 77.7765 8.40588C77.9326 8.51485 78.0107 8.69466 78.0107 8.9453V9.20683C78.0107 9.46837 77.9326 9.65363 77.7765 9.7626C77.6205 9.87157 77.3743 9.92606 77.0381 9.92606Z" fill="#3D4B5C"/>
<path d="M87.2059 11.0049C87.4341 11.0049 87.6262 11.0757 87.7822 11.2174C87.9383 11.3482 88.0164 11.5062 88.0164 11.6914C88.0164 11.7895 87.9744 11.9257 87.8903 12.1001L84.4684 19.1615C84.3964 19.3032 84.2943 19.4176 84.1622 19.5048C84.0302 19.592 83.8861 19.641 83.73 19.6519C83.5379 19.6737 83.3578 19.641 83.1897 19.5539C83.0336 19.4667 82.9135 19.3359 82.8295 19.1615L79.4076 12.1001C79.3475 11.9366 79.3175 11.8004 79.3175 11.6914C79.3175 11.5171 79.3956 11.3591 79.5517 11.2174C79.7077 11.0757 79.9119 11.0049 80.164 11.0049C80.3441 11.0049 80.5062 11.0485 80.6503 11.1357C80.7943 11.2119 80.9084 11.3318 80.9925 11.4953L83.712 17.2327L86.4315 11.4953C86.5996 11.1684 86.8577 11.0049 87.2059 11.0049Z" fill="#3D4B5C"/>
<path d="M97.7052 15.0424C97.6932 15.2385 97.6032 15.4074 97.4351 15.5491C97.267 15.6798 97.0689 15.7452 96.8407 15.7452H90.5012C90.5852 16.5407 90.9154 17.1782 91.4917 17.6577C92.0801 18.1372 92.7945 18.3769 93.6349 18.3769C94.2113 18.3769 94.6795 18.3007 95.0397 18.1481C95.3999 17.9955 95.7181 17.7994 95.9943 17.5596C96.1744 17.4616 96.3485 17.4125 96.5166 17.4125C96.7207 17.4125 96.8888 17.4779 97.0208 17.6087C97.1649 17.7394 97.237 17.892 97.237 18.0664C97.237 18.2952 97.1169 18.5023 96.8768 18.6875C96.5286 19.0035 96.0663 19.2705 95.49 19.4885C94.9137 19.7064 94.3253 19.8154 93.725 19.8154C92.7525 19.8154 91.894 19.6301 91.1496 19.2596C90.4171 18.8891 89.8468 18.3715 89.4386 17.7068C89.0424 17.042 88.8443 16.2901 88.8443 15.451C88.8443 14.5356 89.0484 13.7347 89.4566 13.0481C89.8769 12.3507 90.4232 11.8167 91.0955 11.4462C91.7799 11.0757 92.5123 10.8905 93.2928 10.8905C94.0612 10.8905 94.7816 11.0703 95.454 11.4299C96.1263 11.7895 96.6666 12.2853 97.0749 12.9174C97.4831 13.5494 97.6932 14.2577 97.7052 15.0424ZM93.2928 12.3289C92.6204 12.3289 92.0381 12.5033 91.5458 12.852C91.0535 13.1898 90.7293 13.7183 90.5732 14.4376H95.8862V14.3068C95.8262 13.7292 95.538 13.2552 95.0217 12.8847C94.5174 12.5142 93.9411 12.3289 93.2928 12.3289Z" fill="#3D4B5C"/>
<path fill-rule="evenodd" clip-rule="evenodd" d="M156.281 32.3455C157.848 32.3455 159.119 31.1273 159.119 29.6245C159.119 28.1218 157.848 26.9036 156.281 26.9036C154.714 26.9036 153.444 28.1218 153.444 29.6245C153.444 31.1273 154.714 32.3455 156.281 32.3455ZM156.281 30.9854C157.064 30.9854 157.699 30.3763 157.699 29.6249C157.699 28.8735 157.064 28.2644 156.281 28.2644C155.497 28.2644 154.862 28.8735 154.862 29.6249C154.862 30.3763 155.497 30.9854 156.281 30.9854Z" fill="#3D4B5C"/>
<path d="M115.134 34.9827C114.391 34.8017 114.014 33.9208 114.506 33.3568L118.747 28.4957C118.89 28.3325 118.968 28.1265 118.968 27.9137V27.8106C118.968 27.3097 118.544 26.9037 118.022 26.9037H106.233C105.847 26.9037 105.535 27.2035 105.535 27.5734C105.535 27.9432 105.847 28.2431 106.233 28.2431H114.903C115.707 28.2431 116.144 29.1441 115.626 29.734L111.529 34.4033C111.241 34.7318 111.232 35.209 111.509 35.5469L111.636 35.7031C111.741 35.8303 111.9 35.9047 112.068 35.9047H112.262C112.266 35.9047 112.27 35.9033 112.273 35.9008L112.287 35.8896C112.292 35.885 112.301 35.8889 112.301 35.8961C112.301 35.9008 112.305 35.9047 112.31 35.9047C115.772 35.9075 118.301 37.5411 118.301 40.2444C118.301 42.9501 115.768 44.5842 112.368 44.5842C109.825 44.5842 107.859 43.8194 106.816 42.3943C106.551 42.0333 106.058 41.8543 105.645 42.05C105.251 42.2375 105.08 42.6978 105.327 43.0478C106.654 44.9308 109.308 45.9504 112.368 45.9504C116.501 45.9504 120.068 43.8609 120.068 40.2444C120.068 37.4777 117.987 35.6774 115.134 34.9827Z" fill="#3D4B5C"/>
<path fill-rule="evenodd" clip-rule="evenodd" d="M119.473 29.0777L115.232 33.9387C115.231 33.9394 115.23 33.9405 115.23 33.9405C115.23 33.9453 115.23 33.9619 115.24 33.9877C115.265 34.0503 115.318 34.0915 115.367 34.1035C118.475 34.8602 121.014 36.9196 121.014 40.2444C121.014 42.3766 119.947 44.0642 118.322 45.189C116.719 46.298 114.588 46.8573 112.368 46.8573C109.132 46.8573 106.111 45.7806 104.544 43.5555C103.921 42.6721 104.411 41.6244 105.226 41.2372C106.153 40.7969 107.125 41.2371 107.59 41.8731C108.389 42.9643 109.994 43.6771 112.368 43.6771C113.923 43.6771 115.193 43.3023 116.049 42.6983C116.881 42.1119 117.356 41.2914 117.356 40.2444C117.356 39.1989 116.882 38.38 116.046 37.7939C115.184 37.1897 113.899 36.8129 112.31 36.8116C112.302 36.8116 112.294 36.8115 112.286 36.8113C112.278 36.8115 112.27 36.8116 112.262 36.8116H112.069C111.61 36.8116 111.176 36.6092 110.893 36.2627L110.765 36.1064C110.212 35.4308 110.23 34.4762 110.806 33.8193L114.903 29.15H106.234C105.326 29.15 104.589 28.4441 104.589 27.5733C104.589 26.7025 105.326 25.9966 106.234 25.9966H118.022C119.067 25.9966 119.914 26.8087 119.914 27.8106V27.9136C119.914 28.3392 119.758 28.7513 119.473 29.0777ZM111.356 35.9142C111.359 36.0469 111.39 36.1717 111.445 36.2835C111.391 36.1738 111.359 36.0496 111.356 35.9142ZM114.506 33.3567C114.014 33.9207 114.391 34.8016 115.135 34.9826C117.987 35.6773 120.068 37.4776 120.068 40.2444C120.068 43.8608 116.502 45.9504 112.368 45.9504C109.309 45.9504 106.654 44.9307 105.327 43.0477C105.081 42.6977 105.251 42.2374 105.646 42.0499C106.058 41.8542 106.552 42.0333 106.816 42.3943C107.859 43.8193 109.826 44.5841 112.368 44.5841C115.768 44.5841 118.302 42.95 118.302 40.2444C118.302 37.541 115.773 35.9074 112.311 35.9046C112.306 35.9046 112.302 35.9008 112.302 35.8961C112.302 35.8888 112.293 35.8849 112.287 35.8895L112.273 35.9007C112.27 35.9032 112.266 35.9046 112.262 35.9046H112.069C112.036 35.9046 112.003 35.9017 111.97 35.8961C111.84 35.8732 111.72 35.8051 111.637 35.703L111.509 35.5468C111.233 35.209 111.242 34.7317 111.53 34.4032L115.627 29.7339C116.144 29.144 115.707 28.243 114.903 28.243H106.234C105.848 28.243 105.535 27.9432 105.535 27.5733C105.535 27.2034 105.848 26.9036 106.234 26.9036H118.022C118.545 26.9036 118.968 27.3096 118.968 27.8106V27.9136C118.968 28.1264 118.89 28.3324 118.748 28.4956L114.506 33.3567Z" fill="#3D4B5C"/>
<path d="M128.581 33.6008C127.779 33.6008 127.17 32.6383 127.667 32.0353L130.926 28.0816C131.319 27.6049 130.965 26.9037 130.331 26.9037C130.1 26.9037 129.881 27.0049 129.737 27.1785L122.399 36.0386C121.529 37.0566 121.014 38.3156 121.014 39.789C121.014 43.4323 124.202 45.9504 128.581 45.9504C132.96 45.9504 136.147 43.4323 136.147 39.789C136.147 36.119 132.96 33.6008 128.581 33.6008ZM128.581 44.5842C125.007 44.5842 122.753 42.5751 122.753 39.789C122.753 36.9762 125.007 34.9671 128.581 34.9671C132.155 34.9671 134.441 36.9762 134.441 39.789C134.441 42.5751 132.155 44.5842 128.581 44.5842Z" fill="#3D4B5C"/>
<path fill-rule="evenodd" clip-rule="evenodd" d="M128.44 32.5597L131.667 28.644C132.551 27.5726 131.755 25.9966 130.331 25.9966C129.811 25.9966 129.32 26.224 128.996 26.6143L121.662 35.4693C120.662 36.6427 120.068 38.1014 120.068 39.7889C120.068 44.0734 123.838 46.8573 128.58 46.8573C133.322 46.8573 137.092 44.0734 137.092 39.7889C137.092 35.4801 133.325 32.6938 128.58 32.6938C128.579 32.6938 128.577 32.6937 128.571 32.692C128.564 32.6901 128.554 32.686 128.54 32.6774C128.51 32.659 128.478 32.628 128.455 32.5904C128.448 32.5784 128.443 32.5681 128.44 32.5597ZM124.95 42.5497C125.755 43.2276 126.975 43.6771 128.58 43.6771C130.185 43.6771 131.415 43.2274 132.229 42.5474C133.034 41.8752 133.494 40.9292 133.494 39.7889C133.494 38.6327 133.032 37.6802 132.228 37.0059C131.414 36.3237 130.185 35.874 128.58 35.874C126.975 35.874 125.756 36.3235 124.951 37.0036C124.156 37.676 123.698 38.6285 123.698 39.7889C123.698 40.9334 124.154 41.8795 124.95 42.5497ZM127.666 32.0352C127.169 32.6382 127.778 33.6008 128.58 33.6008C132.959 33.6008 136.147 36.1189 136.147 39.7889C136.147 43.4322 132.959 45.9504 128.58 45.9504C124.201 45.9504 121.014 43.4322 121.014 39.7889C121.014 38.3156 121.529 37.0565 122.398 36.0385L129.737 27.1784C129.881 27.0048 130.099 26.9036 130.331 26.9036C130.964 26.9036 131.318 27.6048 130.925 28.0815L127.666 32.0352ZM122.752 39.7889C122.752 42.575 125.006 44.5841 128.58 44.5841C132.154 44.5841 134.44 42.575 134.44 39.7889C134.44 36.9761 132.154 34.967 128.58 34.967C125.006 34.967 122.752 36.9761 122.752 39.7889Z" fill="#3D4B5C"/>
<path d="M146.078 45.9504C151.839 45.9504 155.063 42.1252 155.063 36.427C155.063 30.7288 151.839 26.9037 146.078 26.9037C140.316 26.9037 137.092 30.7288 137.092 36.427C137.092 42.1252 140.316 45.9504 146.078 45.9504ZM146.078 44.605C141.619 44.605 138.944 41.5976 138.944 36.427C138.944 31.2564 141.619 28.2491 146.078 28.2491C150.536 28.2491 153.211 31.2564 153.211 36.427C153.211 41.5976 150.536 44.605 146.078 44.605Z" fill="#3D4B5C"/>
<path fill-rule="evenodd" clip-rule="evenodd" d="M153.442 43.9235C151.711 45.8156 149.191 46.8573 146.078 46.8573C142.965 46.8573 140.444 45.8156 138.713 43.9235C136.997 42.0472 136.147 39.4325 136.147 36.427C136.147 33.4215 136.997 30.8067 138.713 28.9304C140.444 27.0383 142.965 25.9966 146.078 25.9966C149.191 25.9966 151.711 27.0383 153.442 28.9304C155.158 30.8067 156.009 33.4215 156.009 36.427C156.009 39.4325 155.158 42.0472 153.442 43.9235ZM141.563 41.8712C142.584 43.0358 144.086 43.698 146.078 43.698C148.069 43.698 149.571 43.0358 150.592 41.8712C151.632 40.6857 152.265 38.8733 152.265 36.427C152.265 33.9806 151.632 32.1682 150.592 30.9827C149.571 29.8181 148.069 29.156 146.078 29.156C144.086 29.156 142.584 29.8181 141.563 30.9827C140.524 32.1682 139.89 33.9806 139.89 36.427C139.89 38.8733 140.524 40.6857 141.563 41.8712ZM155.063 36.427C155.063 42.1252 151.839 45.9504 146.078 45.9504C140.316 45.9504 137.092 42.1252 137.092 36.427C137.092 30.7288 140.316 26.9037 146.078 26.9037C151.839 26.9037 155.063 30.7288 155.063 36.427ZM138.944 36.427C138.944 41.5976 141.619 44.605 146.078 44.605C150.536 44.605 153.211 41.5976 153.211 36.427C153.211 31.2564 150.536 28.2491 146.078 28.2491C141.619 28.2491 138.944 31.2564 138.944 36.427Z" fill="#3D4B5C"/>
<path fill-rule="evenodd" clip-rule="evenodd" d="M11.2313 30.4619C10.4836 30.4619 8.87305 33.0673 8.87305 33.0673C8.87305 33.0808 12.4105 35.3877 12.6981 35.5912C14.2943 36.6768 15.8329 37.8302 17.2996 39.0786C19.2697 40.7476 21.326 42.5795 22.4764 44.8728C22.8071 45.5513 23.066 46.2704 23.1666 47.0168C23.1379 46.7589 23.2242 46.4061 23.2385 46.1483C23.2673 45.4156 23.2817 44.6828 23.2242 43.95C23.1379 42.6202 22.7784 41.2768 22.045 40.1099C21.6424 39.445 21.1103 38.8343 20.5639 38.278C19.054 36.731 17.4003 35.2927 15.7322 33.9086C14.8551 33.1623 13.9635 32.4431 13.0432 31.7239C12.5255 31.3168 11.9647 30.7604 11.332 30.4891C11.3032 30.4755 11.2745 30.4619 11.2313 30.4619Z" fill="url(#paint0_linear_2246_6954)"/>
<path fill-rule="evenodd" clip-rule="evenodd" d="M20.7864 13.4219C20.7582 14.1531 20.7441 14.8844 20.8006 15.6156C20.8853 16.9561 21.2525 18.2831 21.9588 19.4477C22.3543 20.1112 22.8769 20.7205 23.4136 21.2892C24.8967 22.8194 26.521 24.2547 28.1595 25.6494C29.0211 26.3807 29.9109 27.1119 30.8008 27.816C31.3092 28.2222 31.8742 28.7774 32.4816 29.0618C33.1454 29.3597 34.8969 26.4754 34.8969 26.4754C34.8969 26.4754 31.4222 24.1599 31.1398 23.9704C29.5719 22.8735 28.0606 21.7226 26.6199 20.4768C24.6848 18.8112 22.665 16.9832 21.5492 14.6948C21.2102 14.0177 20.9701 13.3136 20.8571 12.5688C20.8853 12.8261 20.8006 13.1647 20.7864 13.4219Z" fill="url(#paint1_linear_2246_6954)"/>
<path fill-rule="evenodd" clip-rule="evenodd" d="M7.40942 35.672C7.36628 37.2189 7.3519 38.7794 7.25124 40.3128C7.2081 40.9098 6.79108 41.629 7.15058 42.1175C7.36628 42.4161 7.66825 42.5517 7.94147 42.796C8.21469 43.0538 8.43039 43.3659 8.73236 43.6102C9.22128 44.0173 9.79647 44.3565 10.3429 44.6957C12.1116 45.7949 13.8516 46.9483 15.4765 48.2238C17.2596 49.6215 19.129 51.1956 19.7186 53.3802C20.2794 55.47 19.6179 57.519 18.9708 59.5001C20.1356 57.4918 21.3723 55.6328 22.1056 53.421C22.6665 51.7248 22.4939 49.5808 21.9187 47.9117C21.4586 46.5548 20.7108 45.3064 19.733 44.2208C19.4885 43.9358 19.2297 43.6645 18.9421 43.4066C16.7851 41.3712 14.1967 39.6207 11.7953 37.8295C10.3429 36.744 8.8474 35.7127 7.43818 34.5864C7.55322 34.6814 7.40942 35.5499 7.40942 35.672Z" fill="url(#paint2_linear_2246_6954)"/>
<path fill-rule="evenodd" clip-rule="evenodd" d="M14.6119 12.2377C13.5909 12.3327 12.8287 13.174 12.2392 13.8796C11.8797 14.3003 11.5489 14.7345 11.2038 15.1687C9.46386 17.3806 7.39316 19.321 5.69633 21.56C5.2218 22.1842 4.76164 22.8219 4.33025 23.4733C1.46865 27.7613 0.965356 34.3561 3.81257 38.7526C4.4309 39.7025 5.16428 40.6388 6.02707 41.4122C6.84672 42.1586 7.91083 42.6471 8.58669 43.5291C7.40754 41.3172 7.60886 38.7526 8.50041 36.4729C9.37758 34.2611 10.7724 32.2256 12.4693 30.4752C14.1086 28.779 16.2655 27.5034 17.7323 25.6851C18.7389 24.4367 19.5585 22.8762 19.8605 21.3429C20.1912 19.6602 19.9612 17.964 19.3428 16.3764C18.969 15.4401 18.4369 14.5717 17.7035 13.8525C16.9989 13.1469 15.906 12.2241 14.7988 12.2241C14.7413 12.2241 14.6838 12.2377 14.6119 12.2377Z" fill="url(#paint3_linear_2246_6954)"/>
<path fill-rule="evenodd" clip-rule="evenodd" d="M22.1016 6.57916C21.5408 8.28892 21.7133 10.4193 22.2885 12.0884C22.7487 13.4454 23.5108 14.6937 24.4743 15.7929C24.7187 16.0643 24.9776 16.3357 25.2652 16.6071C27.4221 18.6289 30.0105 20.3794 32.412 22.1706C33.8643 23.2561 35.3598 24.2874 36.7691 25.4137C36.654 25.3323 36.7978 24.4638 36.7978 24.3281C36.841 22.7812 36.8553 21.2207 36.956 19.6873C36.9991 19.0903 37.4162 18.3711 37.0567 17.8826C36.841 17.5841 36.539 17.4484 36.2658 17.2041C35.9925 16.9463 35.7768 16.6478 35.4749 16.3899C34.986 15.9829 34.4108 15.6572 33.8643 15.3044C32.0956 14.2052 30.3556 13.0518 28.7307 11.7763C26.9476 10.3922 25.0782 8.81813 24.4886 6.61987C23.9278 4.53016 24.5893 2.48115 25.2364 0.5C24.0716 2.50829 22.835 4.36732 22.1016 6.57916Z" fill="url(#paint4_linear_2246_6954)"/>
<path fill-rule="evenodd" clip-rule="evenodd" d="M35.7069 23.5276C34.8298 25.753 33.4349 27.7884 31.7381 29.5253C30.0988 31.2215 27.9418 32.4971 26.4751 34.3154C25.4685 35.5638 24.6488 37.1243 24.3468 38.6712C24.0161 40.3403 24.2462 42.0365 24.8645 43.6241C25.2384 44.5604 25.7705 45.4289 26.5038 46.1616C27.2516 46.8944 28.4307 47.8714 29.5955 47.7628C30.6165 47.6678 31.3786 46.8265 31.9682 46.1209C32.3277 45.7002 32.6584 45.266 33.0035 44.8318C34.7435 42.6335 36.8142 40.6795 38.5254 38.4405C38.9855 37.8163 39.4457 37.1786 39.8771 36.5408C42.7387 32.2393 43.2564 25.658 40.3948 21.2615C39.7764 20.298 39.0574 19.3618 38.1947 18.5883C37.3606 17.842 36.2965 17.3535 35.6207 16.4714C36.7998 18.6833 36.5985 21.2479 35.7069 23.5276Z" fill="url(#paint5_linear_2246_6954)"/>
</g>
<defs>
<linearGradient id="paint0_linear_2246_6954" x1="10.7569" y1="31.8324" x2="22.9109" y2="45.4278" gradientUnits="userSpaceOnUse">
<stop stop-color="#3D3777"/>
<stop offset="1" stop-color="#E32A88"/>
</linearGradient>
<linearGradient id="paint1_linear_2246_6954" x1="31.7322" y1="25.8671" x2="27.3822" y2="16.3444" gradientUnits="userSpaceOnUse">
<stop stop-color="#12378A"/>
<stop offset="0.994792" stop-color="#0477FF"/>
</linearGradient>
<linearGradient id="paint2_linear_2246_6954" x1="10.4636" y1="39.4439" x2="18.2986" y2="51.8648" gradientUnits="userSpaceOnUse">
<stop stop-color="#3D3777"/>
<stop offset="1" stop-color="#E32A88"/>
</linearGradient>
<linearGradient id="paint3_linear_2246_6954" x1="7.30055" y1="33.1655" x2="15.6721" y2="18.3396" gradientUnits="userSpaceOnUse">
<stop stop-color="#E32A88"/>
<stop offset="1" stop-color="#3D3777"/>
</linearGradient>
<linearGradient id="paint4_linear_2246_6954" x1="33.7441" y1="20.5616" x2="25.909" y2="8.14016" gradientUnits="userSpaceOnUse">
<stop stop-color="#12378A"/>
<stop offset="0.994792" stop-color="#0477FF"/>
</linearGradient>
<linearGradient id="paint5_linear_2246_6954" x1="36.9074" y1="26.8065" x2="28.5344" y2="41.5876" gradientUnits="userSpaceOnUse">
<stop stop-color="#00AADF"/>
<stop offset="1" stop-color="#223F81"/>
</linearGradient>
<clipPath id="clip0_2246_6954">
<rect width="159.3" height="59" fill="white" transform="translate(0.5 0.5)"/>
</clipPath>
</defs>
</svg>
