<svg width="25" height="24" viewBox="0 0 25 24" fill="none" xmlns="http://www.w3.org/2000/svg">
<path d="M17.5 10H19.5C21.5 10 22.5 9 22.5 7V5C22.5 3 21.5 2 19.5 2H17.5C15.5 2 14.5 3 14.5 5V7C14.5 9 15.5 10 17.5 10Z" fill="url(#paint0_linear_2415_7702)"/>
<path d="M5.5 22H7.5C9.5 22 10.5 21 10.5 19V17C10.5 15 9.5 14 7.5 14H5.5C3.5 14 2.5 15 2.5 17V19C2.5 21 3.5 22 5.5 22Z" fill="url(#paint1_linear_2415_7702)"/>
<path opacity="0.34" d="M6.5 10C8.70914 10 10.5 8.20914 10.5 6C10.5 3.79086 8.70914 2 6.5 2C4.29086 2 2.5 3.79086 2.5 6C2.5 8.20914 4.29086 10 6.5 10Z" fill="url(#paint2_linear_2415_7702)"/>
<path opacity="0.34" d="M18.5 22C20.7091 22 22.5 20.2091 22.5 18C22.5 15.7909 20.7091 14 18.5 14C16.2909 14 14.5 15.7909 14.5 18C14.5 20.2091 16.2909 22 18.5 22Z" fill="url(#paint3_linear_2415_7702)"/>
<defs>
<linearGradient id="paint0_linear_2415_7702" x1="20.1172" y1="4.64159" x2="18.6407" y2="9.14805" gradientUnits="userSpaceOnUse">
<stop stop-color="#00AADF"/>
<stop offset="1" stop-color="#223F81"/>
</linearGradient>
<linearGradient id="paint1_linear_2415_7702" x1="8.11719" y1="16.6416" x2="6.64067" y2="21.1481" gradientUnits="userSpaceOnUse">
<stop stop-color="#00AADF"/>
<stop offset="1" stop-color="#223F81"/>
</linearGradient>
<linearGradient id="paint2_linear_2415_7702" x1="8.11719" y1="4.64159" x2="6.64067" y2="9.14805" gradientUnits="userSpaceOnUse">
<stop stop-color="#00AADF"/>
<stop offset="1" stop-color="#223F81"/>
</linearGradient>
<linearGradient id="paint3_linear_2415_7702" x1="20.1172" y1="16.6416" x2="18.6407" y2="21.1481" gradientUnits="userSpaceOnUse">
<stop stop-color="#00AADF"/>
<stop offset="1" stop-color="#223F81"/>
</linearGradient>
</defs>
</svg>
