<svg width="25" height="24" viewBox="0 0 25 24" fill="none" xmlns="http://www.w3.org/2000/svg">
<path opacity="0.4" d="M18.4976 7.16C18.4376 7.15 18.3676 7.15 18.3076 7.16C16.9276 7.11 15.8276 5.98 15.8276 4.58C15.8276 3.15 16.9776 2 18.4076 2C19.8376 2 20.9876 3.16 20.9876 4.58C20.9776 5.98 19.8776 7.11 18.4976 7.16Z" stroke="#9CA1AB" stroke-width="1.5" stroke-linecap="round" stroke-linejoin="round"/>
<path opacity="0.4" d="M17.4675 14.44C18.8375 14.67 20.3475 14.43 21.4075 13.72C22.8175 12.78 22.8175 11.24 21.4075 10.3C20.3375 9.59001 18.8075 9.35 17.4375 9.59" stroke="#9CA1AB" stroke-width="1.5" stroke-linecap="round" stroke-linejoin="round"/>
<path opacity="0.4" d="M6.4675 7.16C6.5275 7.15 6.5975 7.15 6.6575 7.16C8.0375 7.11 9.1375 5.98 9.1375 4.58C9.1375 3.15 7.9875 2 6.5575 2C5.1275 2 3.9775 3.16 3.9775 4.58C3.9875 5.98 5.0875 7.11 6.4675 7.16Z" stroke="#9CA1AB" stroke-width="1.5" stroke-linecap="round" stroke-linejoin="round"/>
<path opacity="0.4" d="M7.4975 14.44C6.1275 14.67 4.6175 14.43 3.5575 13.72C2.1475 12.78 2.1475 11.24 3.5575 10.3C4.6275 9.59001 6.1575 9.35 7.5275 9.59" stroke="#9CA1AB" stroke-width="1.5" stroke-linecap="round" stroke-linejoin="round"/>
<path d="M12.5 14.63C12.44 14.62 12.37 14.62 12.31 14.63C10.93 14.58 9.83 13.45 9.83 12.05C9.83 10.62 10.98 9.47 12.41 9.47C13.84 9.47 14.99 10.63 14.99 12.05C14.98 13.45 13.88 14.59 12.5 14.63Z" stroke="#9CA1AB" stroke-width="1.5" stroke-linecap="round" stroke-linejoin="round"/>
<path d="M9.59 17.78C8.18 18.72 8.18 20.26 9.59 21.2C11.19 22.27 13.81 22.27 15.41 21.2C16.82 20.26 16.82 18.72 15.41 17.78C13.82 16.72 11.19 16.72 9.59 17.78Z" stroke="#9CA1AB" stroke-width="1.5" stroke-linecap="round" stroke-linejoin="round"/>
</svg>
