<svg width="25" height="24" viewBox="0 0 25 24" fill="none" xmlns="http://www.w3.org/2000/svg">
<path opacity="0.4" d="M12.5 17V19.38C12.5 21.25 11.75 22 9.87 22H5.12C3.25 22 2.5 21.25 2.5 19.38V14.63C2.5 12.75 3.25 12 5.12 12H7.5V14.37C7.5 16.25 8.25 17 10.12 17H12.5Z" stroke="#9CA1AB" stroke-width="1.5" stroke-linecap="round" stroke-linejoin="round"/>
<path d="M17.5 12V14.37C17.5 16.25 16.75 17 14.87 17H10.12C8.25 17 7.5 16.25 7.5 14.37V9.62C7.5 7.75 8.25 7 10.12 7H12.5V9.37C12.5 11.25 13.25 12 15.12 12H17.5Z" stroke="#9CA1AB" stroke-width="1.5" stroke-linecap="round" stroke-linejoin="round"/>
<path d="M22.5 4.62V9.37C22.5 11.25 21.75 12 19.87 12H15.12C13.25 12 12.5 11.25 12.5 9.37V4.62C12.5 2.75 13.25 2 15.12 2H19.87C21.75 2 22.5 2.75 22.5 4.62Z" stroke="#9CA1AB" stroke-width="1.5" stroke-linecap="round" stroke-linejoin="round"/>
</svg>
